<?xml version="1.0" encoding="UTF-8" standalone="no"?>
<svg
   xmlns:dc="http://purl.org/dc/elements/1.1/"
   xmlns:cc="http://creativecommons.org/ns#"
   xmlns:rdf="http://www.w3.org/1999/02/22-rdf-syntax-ns#"
   xmlns:svg="http://www.w3.org/2000/svg"
   xmlns="http://www.w3.org/2000/svg"
   viewBox="0 0 1122.52 793.70667"
   height="793.70667"
   width="1122.52"
   xml:space="preserve"
   id="svg2"
   version="1.1"><metadata
     id="metadata8"><rdf:RDF><cc:Work
         rdf:about=""><dc:format>image/svg+xml</dc:format><dc:type
           rdf:resource="http://purl.org/dc/dcmitype/StillImage" /></cc:Work></rdf:RDF></metadata><defs
     id="defs6"><clipPath
       id="clipPath24"
       clipPathUnits="userSpaceOnUse"><path
         id="path22"
         d="M 0,595.28 H 841.89 V 0 H 0 Z" /></clipPath></defs><g
     transform="matrix(1.3333333,0,0,-1.3333333,0,793.70667)"
     id="g10"><path
       id="path12"
       style="fill:#1b1b1f;fill-opacity:1;fill-rule:nonzero;stroke:none"
       d="m 614.945,336.568 h -388 v 122 h 388 z" /><g
       transform="translate(279.2119,493.0732)"
       id="g14"><path
         id="path16"
         style="fill:#1b1b1f;fill-opacity:1;fill-rule:nonzero;stroke:none"
         d="M 0,0 V 36.566 H 6.173 V 20.715 h 18.152 v 15.851 h 6.173 V 0 H 24.325 V 14.961 H 6.173 L 6.173,0 Z" /></g><g
       id="g18"><g
         clip-path="url(#clipPath24)"
         id="g20"><g
           transform="translate(377.0684,512.585)"
           id="g26"><path
             id="path28"
             style="fill:#1b1b1f;fill-opacity:1;fill-rule:nonzero;stroke:none"
             d="m 0,0 c 1.257,1.081 1.884,2.815 1.884,5.205 0,2.389 -0.648,4.027 -1.935,4.917 -1.292,0.889 -3.595,1.335 -6.906,1.335 h -7.848 V -1.621 h 7.692 c 3.485,0 5.858,0.54 7.113,1.621 M 8.213,5.179 C 8.213,-0.855 5.58,-4.654 0.314,-6.225 L 9.886,-19.512 H 2.04 L -6.694,-7.22 h -8.111 v -12.292 h -6.173 v 36.566 h 13.603 c 5.578,0 9.571,-0.942 11.978,-2.825 2.406,-1.882 3.61,-4.899 3.61,-9.05" /></g><g
           transform="translate(410.1562,493.0732)"
           id="g30"><path
             id="path32"
             style="fill:#1b1b1f;fill-opacity:1;fill-rule:nonzero;stroke:none"
             d="m 0,0 h -6.906 l -14.698,36.566 h 6.905 L -3.455,9.259 7.795,36.566 h 6.906 z" /></g><g
           transform="translate(456.0059,529.6392)"
           id="g34"><path
             id="path36"
             style="fill:#1b1b1f;fill-opacity:1;fill-rule:nonzero;stroke:none"
             d="m 0,0 v -5.806 h -19.512 v -9.678 h 17.524 v -5.493 h -17.524 v -9.782 H 0.629 v -5.807 H -25.684 V 0 Z" /></g><g
           transform="translate(515.7754,524.6445)"
           id="g38"><path
             id="path40"
             style="fill:#1b1b1f;fill-opacity:1;fill-rule:nonzero;stroke:none"
             d="m 0,0 c -1.805,0 -3.283,-0.368 -4.439,-1.103 -1.155,-0.734 -1.735,-1.848 -1.735,-3.335 0,-1.488 0.58,-2.627 1.735,-3.414 1.156,-0.788 3.615,-1.638 7.378,-2.547 3.764,-0.911 6.602,-2.188 8.508,-3.835 1.91,-1.646 2.866,-4.07 2.866,-7.275 0,-3.203 -1.209,-5.803 -3.625,-7.8 -2.417,-1.996 -5.586,-2.993 -9.506,-2.993 -5.746,0 -10.84,1.978 -15.287,5.936 l 3.888,4.674 c 3.711,-3.223 7.563,-4.833 11.557,-4.833 1.996,0 3.578,0.428 4.752,1.288 1.174,0.856 1.758,1.995 1.758,3.414 0,1.418 -0.549,2.521 -1.653,3.308 -1.103,0.787 -3.004,1.506 -5.699,2.154 -2.695,0.647 -4.746,1.241 -6.144,1.786 -1.401,0.543 -2.647,1.252 -3.729,2.126 -2.176,1.647 -3.258,4.167 -3.258,7.565 0,3.396 1.235,6.014 3.701,7.852 2.469,1.839 5.526,2.759 9.168,2.759 C 2.582,5.727 4.91,5.34 7.221,4.57 9.533,3.799 11.527,2.713 13.209,1.313 L 9.9,-3.361 C 8.814,-2.381 7.344,-1.575 5.486,-0.945 3.633,-0.315 1.801,0 0,0" /></g><g
           transform="translate(551.5859,523.9893)"
           id="g42"><path
             id="path44"
             style="fill:#1b1b1f;fill-opacity:1;fill-rule:nonzero;stroke:none"
             d="M 0,0 V -30.916 H -6.172 V 0 H -17.26 V 5.65 H 11.092 V 0 Z" /></g><g
           transform="translate(351.0547,493.0732)"
           id="g46"><path
             id="path48"
             style="fill:#1b1b1f;fill-opacity:1;fill-rule:nonzero;stroke:none"
             d="m 0,0 -14.701,36.566 h -6.906 L -36.306,0 h 6.907 l 11.246,27.306 5.472,-13.285 h -6.273 l -2.512,-5.704 h 6.587 4.547 L -6.906,0 Z" /></g><g
           transform="translate(498.3535,493.0732)"
           id="g50"><path
             id="path52"
             style="fill:#1b1b1f;fill-opacity:1;fill-rule:nonzero;stroke:none"
             d="m 0,0 -14.701,36.566 h -6.906 L -36.307,0 h 6.907 l 11.246,27.306 5.472,-13.285 h -6.273 l -2.512,-5.704 h 6.586 4.547 L -6.906,0 Z" /></g><g
           transform="translate(279.2119,379.2852)"
           id="g54"><path
             id="path56"
             style="fill:#ffffff;fill-opacity:1;fill-rule:nonzero;stroke:none"
             d="M 0,0 V 36.566 H 6.173 V 20.715 h 18.152 v 15.851 h 6.173 V 0 H 24.325 V 14.961 H 6.173 L 6.173,0 Z" /></g><g
           transform="translate(377.0684,398.7969)"
           id="g58"><path
             id="path60"
             style="fill:#ffffff;fill-opacity:1;fill-rule:nonzero;stroke:none"
             d="m 0,0 c 1.257,1.08 1.884,2.814 1.884,5.205 0,2.389 -0.648,4.027 -1.935,4.916 -1.292,0.891 -3.595,1.336 -6.906,1.336 h -7.848 V -1.621 h 7.692 C -3.628,-1.621 -1.255,-1.082 0,0 M 8.213,5.178 C 8.213,-0.855 5.58,-4.654 0.314,-6.225 L 9.886,-19.512 H 2.04 l -8.734,12.291 h -8.111 v -12.291 h -6.173 v 36.567 h 13.603 c 5.578,0 9.571,-0.944 11.978,-2.826 2.406,-1.883 3.61,-4.899 3.61,-9.051" /></g><g
           transform="translate(410.1562,379.2852)"
           id="g62"><path
             id="path64"
             style="fill:#ffffff;fill-opacity:1;fill-rule:nonzero;stroke:none"
             d="m 0,0 h -6.906 l -14.698,36.566 h 6.905 L -3.455,9.258 7.795,36.566 h 6.906 z" /></g><g
           transform="translate(456.0059,415.8516)"
           id="g66"><path
             id="path68"
             style="fill:#ffffff;fill-opacity:1;fill-rule:nonzero;stroke:none"
             d="m 0,0 v -5.807 h -19.512 v -9.677 h 17.524 v -5.495 H -19.512 V -30.76 H 0.629 v -5.806 H -25.684 V 0 Z" /></g><g
           transform="translate(515.7754,410.8555)"
           id="g70"><path
             id="path72"
             style="fill:#ffffff;fill-opacity:1;fill-rule:nonzero;stroke:none"
             d="m 0,0 c -1.805,0 -3.283,-0.367 -4.439,-1.102 -1.155,-0.734 -1.735,-1.847 -1.735,-3.335 0,-1.489 0.58,-2.627 1.735,-3.415 1.156,-0.787 3.615,-1.636 7.378,-2.546 3.764,-0.911 6.602,-2.188 8.508,-3.834 1.91,-1.647 2.866,-4.071 2.866,-7.276 0,-3.203 -1.209,-5.804 -3.625,-7.801 -2.417,-1.996 -5.586,-2.992 -9.506,-2.992 -5.746,0 -10.84,1.977 -15.287,5.936 l 3.888,4.674 c 3.711,-3.223 7.563,-4.834 11.557,-4.834 1.996,0 3.578,0.429 4.752,1.289 1.174,0.855 1.758,1.994 1.758,3.414 0,1.418 -0.549,2.521 -1.653,3.308 -1.103,0.787 -3.004,1.506 -5.699,2.153 -2.695,0.648 -4.746,1.242 -6.144,1.787 -1.401,0.543 -2.647,1.252 -3.729,2.127 -2.176,1.646 -3.258,4.166 -3.258,7.564 0,3.397 1.235,6.014 3.701,7.852 2.469,1.84 5.526,2.758 9.168,2.758 C 2.582,5.727 4.91,5.34 7.221,4.57 9.533,3.801 11.527,2.715 13.209,1.314 L 9.9,-3.361 C 8.814,-2.381 7.344,-1.574 5.486,-0.943 3.633,-0.314 1.801,0 0,0" /></g><g
           transform="translate(551.5859,410.2012)"
           id="g74"><path
             id="path76"
             style="fill:#ffffff;fill-opacity:1;fill-rule:nonzero;stroke:none"
             d="M 0,0 V -30.916 H -6.172 V 0 H -17.26 V 5.65 H 11.092 V 0 Z" /></g><g
           transform="translate(351.0547,379.2852)"
           id="g78"><path
             id="path80"
             style="fill:#ffffff;fill-opacity:1;fill-rule:nonzero;stroke:none"
             d="m 0,0 -14.701,36.566 h -6.906 L -36.306,0 h 6.907 l 11.246,27.305 5.472,-13.285 h -6.273 l -2.512,-5.704 h 6.587 4.547 L -6.906,0 Z" /></g><g
           transform="translate(498.3535,379.2852)"
           id="g82"><path
             id="path84"
             style="fill:#ffffff;fill-opacity:1;fill-rule:nonzero;stroke:none"
             d="m 0,0 -14.701,36.566 h -6.906 L -36.307,0 h 6.907 l 11.246,27.305 5.472,-13.285 h -6.273 l -2.512,-5.704 h 6.586 4.547 L -6.906,0 Z" /></g><path
           id="path86"
           style="fill:#4fac24;fill-opacity:1;fill-rule:nonzero;stroke:none"
           d="m 614.945,190.152 h -388 v 122 h 388 z" /><g
           transform="translate(279.2119,232.8691)"
           id="g88"><path
             id="path90"
             style="fill:#ffffff;fill-opacity:1;fill-rule:nonzero;stroke:none"
             d="M 0,0 V 36.566 H 6.173 V 20.715 h 18.152 v 15.851 h 6.173 V 0 H 24.325 V 14.961 H 6.173 L 6.173,0 Z" /></g><g
           transform="translate(377.0684,252.3809)"
           id="g92"><path
             id="path94"
             style="fill:#ffffff;fill-opacity:1;fill-rule:nonzero;stroke:none"
             d="m 0,0 c 1.257,1.08 1.884,2.814 1.884,5.205 0,2.389 -0.648,4.027 -1.935,4.916 -1.292,0.891 -3.595,1.336 -6.906,1.336 h -7.848 V -1.621 h 7.692 C -3.628,-1.621 -1.255,-1.082 0,0 M 8.213,5.178 C 8.213,-0.855 5.58,-4.654 0.314,-6.225 L 9.886,-19.512 H 2.04 l -8.734,12.291 h -8.111 v -12.291 h -6.173 v 36.567 h 13.603 c 5.578,0 9.571,-0.944 11.978,-2.826 2.406,-1.883 3.61,-4.899 3.61,-9.051" /></g><g
           transform="translate(410.1562,232.8691)"
           id="g96"><path
             id="path98"
             style="fill:#ffffff;fill-opacity:1;fill-rule:nonzero;stroke:none"
             d="m 0,0 h -6.906 l -14.698,36.566 h 6.905 L -3.455,9.258 7.795,36.566 h 6.906 z" /></g><g
           transform="translate(456.0059,269.4355)"
           id="g100"><path
             id="path102"
             style="fill:#ffffff;fill-opacity:1;fill-rule:nonzero;stroke:none"
             d="m 0,0 v -5.807 h -19.512 v -9.677 h 17.524 v -5.495 H -19.512 V -30.76 H 0.629 v -5.806 H -25.684 V 0 Z" /></g><g
           transform="translate(515.7754,264.4395)"
           id="g104"><path
             id="path106"
             style="fill:#ffffff;fill-opacity:1;fill-rule:nonzero;stroke:none"
             d="m 0,0 c -1.805,0 -3.283,-0.367 -4.439,-1.102 -1.155,-0.734 -1.735,-1.847 -1.735,-3.335 0,-1.489 0.58,-2.627 1.735,-3.415 1.156,-0.787 3.615,-1.636 7.378,-2.546 3.764,-0.911 6.602,-2.188 8.508,-3.834 1.91,-1.647 2.866,-4.071 2.866,-7.276 0,-3.203 -1.209,-5.804 -3.625,-7.801 -2.417,-1.996 -5.586,-2.992 -9.506,-2.992 -5.746,0 -10.84,1.977 -15.287,5.936 l 3.888,4.674 c 3.711,-3.223 7.563,-4.834 11.557,-4.834 1.996,0 3.578,0.429 4.752,1.289 1.174,0.855 1.758,1.994 1.758,3.414 0,1.418 -0.549,2.521 -1.653,3.308 -1.103,0.787 -3.004,1.506 -5.699,2.153 -2.695,0.648 -4.746,1.242 -6.144,1.787 -1.401,0.543 -2.647,1.252 -3.729,2.127 -2.176,1.646 -3.258,4.166 -3.258,7.564 0,3.397 1.235,6.014 3.701,7.852 2.469,1.84 5.526,2.758 9.168,2.758 C 2.582,5.727 4.91,5.34 7.221,4.57 9.533,3.801 11.527,2.715 13.209,1.314 L 9.9,-3.361 C 8.814,-2.381 7.344,-1.574 5.486,-0.943 3.633,-0.314 1.801,0 0,0" /></g><g
           transform="translate(551.5859,263.7852)"
           id="g108"><path
             id="path110"
             style="fill:#ffffff;fill-opacity:1;fill-rule:nonzero;stroke:none"
             d="M 0,0 V -30.916 H -6.172 V 0 H -17.26 V 5.65 H 11.092 V 0 Z" /></g><g
           transform="translate(351.0547,232.8691)"
           id="g112"><path
             id="path114"
             style="fill:#ffffff;fill-opacity:1;fill-rule:nonzero;stroke:none"
             d="m 0,0 -14.701,36.566 h -6.906 L -36.306,0 h 6.907 l 11.246,27.305 5.472,-13.285 h -6.273 l -2.512,-5.704 h 6.587 4.547 L -6.906,0 Z" /></g><g
           transform="translate(498.3535,232.8691)"
           id="g116"><path
             id="path118"
             style="fill:#ffffff;fill-opacity:1;fill-rule:nonzero;stroke:none"
             d="m 0,0 -14.701,36.566 h -6.906 L -36.307,0 h 6.907 l 11.246,27.305 5.472,-13.285 h -6.273 l -2.512,-5.704 h 6.586 4.547 L -6.906,0 Z" /></g><path
           id="path120"
           style="fill:#056429;fill-opacity:1;fill-rule:nonzero;stroke:none"
           d="M 614.945,41.869 H 226.944 v 122 h 388.001 z" /><g
           transform="translate(279.2119,84.5859)"
           id="g122"><path
             id="path124"
             style="fill:#ffffff;fill-opacity:1;fill-rule:nonzero;stroke:none"
             d="M 0,0 V 36.566 H 6.173 V 20.715 h 18.152 v 15.851 h 6.173 V 0 H 24.325 V 14.961 H 6.173 L 6.173,0 Z" /></g><g
           transform="translate(377.0684,104.0977)"
           id="g126"><path
             id="path128"
             style="fill:#ffffff;fill-opacity:1;fill-rule:nonzero;stroke:none"
             d="m 0,0 c 1.257,1.08 1.884,2.814 1.884,5.205 0,2.389 -0.648,4.027 -1.935,4.916 -1.292,0.891 -3.595,1.336 -6.906,1.336 h -7.848 V -1.621 h 7.692 C -3.628,-1.621 -1.255,-1.082 0,0 M 8.213,5.178 C 8.213,-0.855 5.58,-4.654 0.314,-6.225 L 9.886,-19.512 H 2.04 l -8.734,12.291 h -8.111 v -12.291 h -6.173 v 36.567 h 13.603 c 5.578,0 9.571,-0.944 11.978,-2.826 2.406,-1.883 3.61,-4.899 3.61,-9.051" /></g><g
           transform="translate(410.1562,84.5859)"
           id="g130"><path
             id="path132"
             style="fill:#ffffff;fill-opacity:1;fill-rule:nonzero;stroke:none"
             d="m 0,0 h -6.906 l -14.698,36.566 h 6.905 L -3.455,9.258 7.795,36.566 h 6.906 z" /></g><g
           transform="translate(456.0059,121.1523)"
           id="g134"><path
             id="path136"
             style="fill:#ffffff;fill-opacity:1;fill-rule:nonzero;stroke:none"
             d="m 0,0 v -5.807 h -19.512 v -9.677 h 17.524 v -5.495 H -19.512 V -30.76 H 0.629 v -5.806 H -25.684 V 0 Z" /></g><g
           transform="translate(515.7754,116.1563)"
           id="g138"><path
             id="path140"
             style="fill:#ffffff;fill-opacity:1;fill-rule:nonzero;stroke:none"
             d="m 0,0 c -1.805,0 -3.283,-0.367 -4.439,-1.102 -1.155,-0.734 -1.735,-1.847 -1.735,-3.335 0,-1.489 0.58,-2.627 1.735,-3.415 1.156,-0.787 3.615,-1.636 7.378,-2.546 3.764,-0.911 6.602,-2.188 8.508,-3.834 1.91,-1.647 2.866,-4.071 2.866,-7.276 0,-3.203 -1.209,-5.804 -3.625,-7.801 -2.417,-1.996 -5.586,-2.992 -9.506,-2.992 -5.746,0 -10.84,1.977 -15.287,5.936 l 3.888,4.674 c 3.711,-3.223 7.563,-4.834 11.557,-4.834 1.996,0 3.578,0.429 4.752,1.289 1.174,0.855 1.758,1.994 1.758,3.414 0,1.418 -0.549,2.521 -1.653,3.308 -1.103,0.787 -3.004,1.506 -5.699,2.153 -2.695,0.648 -4.746,1.242 -6.144,1.787 -1.401,0.543 -2.647,1.252 -3.729,2.127 -2.176,1.646 -3.258,4.166 -3.258,7.564 0,3.397 1.235,6.014 3.701,7.852 2.469,1.84 5.526,2.758 9.168,2.758 C 2.582,5.727 4.91,5.34 7.221,4.57 9.533,3.801 11.527,2.715 13.209,1.314 L 9.9,-3.361 C 8.814,-2.381 7.344,-1.574 5.486,-0.943 3.633,-0.314 1.801,0 0,0" /></g><g
           transform="translate(551.5859,115.502)"
           id="g142"><path
             id="path144"
             style="fill:#ffffff;fill-opacity:1;fill-rule:nonzero;stroke:none"
             d="M 0,0 V -30.916 H -6.172 V 0 H -17.26 V 5.65 H 11.092 V 0 Z" /></g><g
           transform="translate(351.0547,84.5859)"
           id="g146"><path
             id="path148"
             style="fill:#ffffff;fill-opacity:1;fill-rule:nonzero;stroke:none"
             d="m 0,0 -14.701,36.566 h -6.906 L -36.306,0 h 6.907 l 11.246,27.305 5.472,-13.285 h -6.273 l -2.512,-5.704 h 6.587 4.547 L -6.906,0 Z" /></g><g
           transform="translate(498.3535,84.5859)"
           id="g150"><path
             id="path152"
             style="fill:#ffffff;fill-opacity:1;fill-rule:nonzero;stroke:none"
             d="m 0,0 -14.701,36.566 h -6.906 L -36.307,0 h 6.907 l 11.246,27.305 5.472,-13.285 h -6.273 l -2.512,-5.704 h 6.586 4.547 L -6.906,0 Z" /></g></g></g></g></svg>