<svg id="Layer_1" data-name="Layer 1" xmlns="http://www.w3.org/2000/svg" viewBox="0 0 334.1 90.71"><defs><style>.cls-1{fill:#4fac25;}.cls-2{fill:#046329;}.cls-3{fill:#fff;}.cls-4{fill:#fbfbfb;}</style></defs><title>logo_horizontal (1)</title><rect class="cls-1" width="28.35" height="28.35"/><rect class="cls-2" x="31.18" width="28.35" height="28.35"/><rect class="cls-1" x="62.36" width="28.35" height="28.35"/><rect class="cls-1" y="31.18" width="28.35" height="28.35"/><rect class="cls-1" x="31.18" y="31.18" width="28.35" height="28.35"/><rect class="cls-1" x="62.36" y="31.18" width="28.35" height="28.35"/><rect class="cls-1" y="62.36" width="28.35" height="28.35"/><rect class="cls-2" x="31.18" y="62.36" width="28.35" height="28.35"/><rect class="cls-1" x="62.36" y="62.36" width="28.35" height="28.35"/><path class="cls-3" d="M368.25,311.81V283.47H373v12.29h14.07V283.47h4.79v28.35h-4.79v-11.6H373v11.6h-4.79Z" transform="translate(-253.9 -252.29)"/><path class="cls-3" d="M450.47,292.67q0,7-6.12,8.84l7.42,10.3h-6.08l-6.77-9.53h-6.29v9.53h-4.79V283.47h10.54q6.49,0,9.29,2.19T450.47,292.67Zm-6.37,4a5,5,0,0,0,1.46-4q0-2.78-1.5-3.81t-5.35-1h-6.08v10.14h6Q442.65,297.94,444.11,296.69Z" transform="translate(-253.9 -252.29)"/><path class="cls-3" d="M469.76,311.81H464.4L453,283.47h5.35l8.72,21.17,8.72-21.17h5.35Z" transform="translate(-253.9 -252.29)"/><path class="cls-3" d="M505.3,283.47V288H490.18v7.5h13.58v4.26H490.18v7.58h15.61v4.5h-20.4V283.47H505.3Z" transform="translate(-253.9 -252.29)"/><path class="cls-3" d="M551.63,287.34a6.32,6.32,0,0,0-3.44.85,2.86,2.86,0,0,0-1.34,2.59,3,3,0,0,0,1.34,2.65,20.3,20.3,0,0,0,5.72,2,15.72,15.72,0,0,1,6.6,3,7,7,0,0,1,2.22,5.64,7.47,7.47,0,0,1-2.81,6,11.2,11.2,0,0,1-7.37,2.32,17.31,17.31,0,0,1-11.85-4.6l3-3.62a13.56,13.56,0,0,0,9,3.75,6.11,6.11,0,0,0,3.68-1,3.12,3.12,0,0,0,1.36-2.65,3,3,0,0,0-1.28-2.57A13.5,13.5,0,0,0,552,300a39.38,39.38,0,0,1-4.76-1.38,10.76,10.76,0,0,1-2.89-1.65q-2.53-1.91-2.53-5.86a7.14,7.14,0,0,1,2.87-6.09,11.56,11.56,0,0,1,7.11-2.14,17,17,0,0,1,5.41.9,14.17,14.17,0,0,1,4.64,2.52l-2.56,3.62a9.7,9.7,0,0,0-3.42-1.87A13.18,13.18,0,0,0,551.63,287.34Z" transform="translate(-253.9 -252.29)"/><path class="cls-3" d="M579.4,287.85v24h-4.79v-24H566v-4.38h22v4.38h-8.6Z" transform="translate(-253.9 -252.29)"/><polygon class="cls-3" points="170.05 59.53 158.65 31.18 153.3 31.18 141.9 59.53 147.25 59.53 155.97 38.36 160.22 48.66 155.35 48.66 153.41 53.08 158.51 53.08 162.04 53.08 164.69 59.53 170.05 59.53"/><polygon class="cls-4" points="284.23 59.53 272.84 31.18 267.48 31.18 256.09 59.53 261.44 59.53 270.16 38.36 274.4 48.66 269.54 48.66 267.59 53.08 272.7 53.08 276.22 53.08 278.88 59.53 284.23 59.53"/></svg>