<svg xmlns="http://www.w3.org/2000/svg" viewBox="11 0 771.7 1122.5" height="1123" width="772"><style>.a{fill:#504f53;}.b{fill:#8d8c90;}.c{fill:#056429;}.d{fill:#4fac24;}.e{fill:#ffde2b;}</style><g transform="matrix(1.3333333 0 0 -1.3333333 0 1122.52)"><path d="m26.3 695.9h8.1v8.1h-8.1z" class="a"/><path d="m53.1 704.8h8.1v8.1h-8.1z" class="b"/><path d="m17.4 687h8.1v8.1h-8.1z" class="b"/><path d="m8.5 669.1h8.1v8.1h-8.1z" class="b"/><path d="m26.3 669.1h8.1v8.1h-8.1z" class="b"/><path d="m44.1 678h8.1v8.1h-8.1z" class="a"/><path d="m44.1 669.1h8.1v8.1h-8.1z" class="b"/><path d="m62 678h8.1v8.1h-8.1z" class="b"/><path d="m79.8 678h8.1v8.1h-8.1z" class="b"/><path d="m62 669.1h8.1v8.1h-8.1z" class="b"/><path d="m70.9 669.1h8.1v8.1h-8.1z" class="a"/><path d="m8.5 660.2h8.1v8.1h-8.1z" class="b"/><path d="m17.4 660.2h8.1v8.1h-8.1z" class="b"/><path d="m26.3 660.2h8.1v8.1h-8.1z" class="b"/><path d="m8.5 651.3h8.1v8.1h-8.1z" class="b"/><path d="m17.4 651.3h8.1v8.1h-8.1z" class="a"/><path d="m26.3 651.3h8.1v8.1h-8.1z" class="a"/><path d="m8.5 642.4h8.1v8.1h-8.1z" class="a"/><path d="m17.4 642.4h8.1v8.1h-8.1z" class="a"/><path d="m26.3 642.4h8.1v8.1h-8.1z" class="a"/><path d="m35.2 660.2h8.1v8.1h-8.1z" class="a"/><path d="m44.1 660.2h8.1v8.1h-8.1z" class="b"/><path d="m53.1 660.2h8.1v8.1h-8.1z" class="a"/><path d="m35.2 651.3h8.1v8.1h-8.1z" class="b"/><path d="m44.1 651.3h8.1v8.1h-8.1z" class="a"/><path d="m53.1 651.3h8.1v8.1h-8.1z" class="a"/><path d="m35.2 642.4h8.1v8.1h-8.1z" class="a"/><path d="m44.1 642.4h8.1v8.1h-8.1z" class="a"/><path d="m53.1 642.4h8.1v8.1h-8.1z" class="a"/><path d="m62 660.2h8.1v8.1h-8.1z" class="b"/><path d="m70.9 660.2h8.1v8.1h-8.1z" class="a"/><path d="m79.8 660.2h8.1v8.1h-8.1z" class="b"/><path d="m62 651.3h8.1v8.1h-8.1z" class="a"/><path d="m70.9 651.3h8.1v8.1h-8.1z" class="b"/><path d="m79.8 651.3h8.1v8.1h-8.1z" class="a"/><path d="m62 642.4h8.1v8.1h-8.1z" class="a"/><path d="m70.9 642.4h8.1v8.1h-8.1z" class="a"/><path d="m79.8 642.4h8.1v8.1h-8.1z" class="a"/><path d="m133.2 704.8h8.1v8.1h-8.1z" class="b"/><path d="m97.6 687h8.1v8.1h-8.1z" class="b"/><path d="m88.7 669.2h8.1v8.1h-8.1z" class="b"/><path d="m106.5 669.2h8.1v8.1h-8.1z" class="b"/><path d="m124.3 687h8.1v8.1h-8.1z" class="b"/><path d="m115.4 678.1h8.1v8.1h-8.1z" class="b"/><path d="m124.3 678.1h8.1v8.1h-8.1z" class="a"/><path d="m115.4 669.2h8.1v8.1h-8.1z" class="b"/><path d="m124.3 669.2h8.1v8.1h-8.1z" class="b"/><path d="m151 687h8.1v8.1h-8.1z" class="b"/><path d="m142.1 678.1h8.1v8.1h-8.1z" class="b"/><path d="m160 678.1h8.1v8.1h-8.1z" class="b"/><path d="m142.1 669.2h8.1v8.1h-8.1z" class="b"/><path d="m151 669.2h8.1v8.1h-8.1z" class="a"/><path d="m88.7 660.2h8.1v8.1h-8.1z" class="b"/><path d="m97.6 660.2h8.1v8.1h-8.1z" class="b"/><path d="m106.5 660.2h8.1v8.1h-8.1z" class="b"/><path d="m88.7 651.3h8.1v8.1h-8.1z" class="b"/><path d="m97.6 651.3h8.1v8.1h-8.1z" class="a"/><path d="m106.5 651.3h8.1v8.1h-8.1z" class="a"/><path d="m88.7 642.4h8.1v8.1h-8.1z" class="a"/><path d="m97.6 642.4h8.1v8.1h-8.1z" class="a"/><path d="m106.5 642.4h8.1v8.1h-8.1z" class="a"/><path d="m115.4 660.2h8.1v8.1h-8.1z" class="a"/><path d="m124.3 660.2h8.1v8.1h-8.1z" class="b"/><path d="m133.2 660.2h8.1v8.1h-8.1z" class="a"/><path d="m115.4 651.3h8.1v8.1h-8.1z" class="b"/><path d="m124.3 651.3h8.1v8.1h-8.1z" class="a"/><path d="m133.2 651.3h8.1v8.1h-8.1z" class="a"/><path d="m115.4 642.4h8.1v8.1h-8.1z" class="a"/><path d="m124.3 642.4h8.1v8.1h-8.1z" class="a"/><path d="m133.2 642.4h8.1v8.1h-8.1z" class="a"/><path d="m151 660.2h8.1v8.1h-8.1z" class="a"/><path d="m160 660.2h8.1v8.1h-8.1z" class="b"/><path d="m142.1 651.3h8.1v8.1h-8.1z" class="a"/><path d="m151 651.3h8.1v8.1h-8.1z" class="b"/><path d="m160 651.3h8.1v8.1h-8.1z" class="a"/><path d="m142.1 642.4h8.1v8.1h-8.1z" class="a"/><path d="m151 642.4h8.1v8.1h-8.1z" class="a"/><path d="m160 642.4h8.1v8.1h-8.1z" class="a"/><path d="m186.7 695.9h8.1v8.1h-8.1z" class="a"/><path d="m213.4 704.8h8.1v8.1h-8.1z" class="b"/><path d="m177.7 687h8.1v8.1h-8.1z" class="b"/><path d="m168.8 669.2h8.1v8.1h-8.1z" class="b"/><path d="m186.7 669.2h8.1v8.1h-8.1z" class="b"/><path d="m195.6 678.1h8.1v8.1h-8.1z" class="b"/><path d="m204.5 678.1h8.1v8.1h-8.1z" class="a"/><path d="m195.6 669.2h8.1v8.1h-8.1z" class="b"/><path d="m231.2 687h8.1v8.1h-8.1z" class="b"/><path d="m222.3 678.1h8.1v8.1h-8.1z" class="b"/><path d="m222.3 669.2h8.1v8.1h-8.1z" class="b"/><path d="m231.2 669.2h8.1v8.1h-8.1z" class="a"/><path d="m168.8 660.2h8.1v8.1h-8.1z" class="b"/><path d="m177.7 660.2h8.1v8.1h-8.1z" class="b"/><path d="m168.8 651.3h8.1v8.1h-8.1z" class="b"/><path d="m177.7 651.3h8.1v8.1h-8.1z" class="a"/><path d="m186.7 651.3h8.1v8.1h-8.1z" class="a"/><path d="m168.8 642.4h8.1v8.1h-8.1z" class="a"/><path d="m177.7 642.4h8.1v8.1h-8.1z" class="a"/><path d="m186.7 642.4h8.1v8.1h-8.1z" class="a"/><path d="m195.6 660.2h8.1v8.1h-8.1z" class="a"/><path d="m204.5 660.2h8.1v8.1h-8.1z" class="b"/><path d="m213.4 660.2h8.1v8.1h-8.1z" class="a"/><path d="m195.6 651.3h8.1v8.1h-8.1z" class="b"/><path d="m204.5 651.3h8.1v8.1h-8.1z" class="a"/><path d="m213.4 651.3h8.1v8.1h-8.1z" class="a"/><path d="m195.6 642.4h8.1v8.1h-8.1z" class="a"/><path d="m204.5 642.4h8.1v8.1h-8.1z" class="a"/><path d="m213.4 642.4h8.1v8.1h-8.1z" class="a"/><path d="m222.3 660.2h8.1v8.1h-8.1z" class="b"/><path d="m231.2 660.2h8.1v8.1h-8.1z" class="a"/><path d="m222.3 651.3h8.1v8.1h-8.1z" class="a"/><path d="m231.2 651.3h8.1v8.1h-8.1z" class="b"/><path d="m222.3 642.4h8.1v8.1h-8.1z" class="a"/><path d="m231.2 642.4h8.1v8.1h-8.1z" class="a"/><path d="m258 695.9h8.1v8.1h-8.1z" class="a"/><path d="m284.7 704.8h8.1v8.1h-8.1z" class="b"/><path d="m240.1 669.2h8.1v8.1h-8.1z" class="b"/><path d="m258 669.2h8.1v8.1h-8.1z" class="b"/><path d="m275.8 678.1h8.1v8.1h-8.1z" class="a"/><path d="m275.8 669.2h8.1v8.1h-8.1z" class="b"/><path d="m293.6 678.1h8.1v8.1h-8.1z" class="b"/><path d="m311.4 678.1h8.1v8.1h-8.1z" class="b"/><path d="m293.6 669.2h8.1v8.1h-8.1z" class="b"/><path d="m302.5 669.2h8.1v8.1h-8.1z" class="a"/><path d="m240.1 660.2h8.1v8.1h-8.1z" class="b"/><path d="m249.1 660.2h8.1v8.1h-8.1z" class="b"/><path d="m258 660.2h8.1v8.1h-8.1z" class="b"/><path d="m240.1 651.3h8.1v8.1h-8.1z" class="b"/><path d="m249.1 651.3h8.1v8.1h-8.1z" class="a"/><path d="m258 651.3h8.1v8.1h-8.1z" class="a"/><path d="m240.1 642.4h8.1v8.1h-8.1z" class="a"/><path d="m249.1 642.4h8.1v8.1h-8.1z" class="a"/><path d="m258 642.4h8.1v8.1h-8.1z" class="a"/><path d="m266.9 660.2h8.1v8.1h-8.1z" class="a"/><path d="m275.8 660.2h8.1v8.1h-8.1z" class="b"/><path d="m284.7 660.2h8.1v8.1h-8.1z" class="a"/><path d="m266.9 651.3h8.1v8.1h-8.1z" class="b"/><path d="m275.8 651.3h8.1v8.1h-8.1z" class="a"/><path d="m284.7 651.3h8.1v8.1h-8.1z" class="a"/><path d="m266.9 642.4h8.1v8.1h-8.1z" class="a"/><path d="m275.8 642.4h8.1v8.1h-8.1z" class="a"/><path d="m284.7 642.4h8.1v8.1h-8.1z" class="a"/><path d="m293.6 660.2h8.1v8.1h-8.1z" class="b"/><path d="m302.5 660.2h8.1v8.1h-8.1z" class="a"/><path d="m311.4 660.2h8.1v8.1h-8.1z" class="b"/><path d="m293.6 651.3h8.1v8.1h-8.1z" class="a"/><path d="m302.5 651.3h8.1v8.1h-8.1z" class="b"/><path d="m311.4 651.3h8.1v8.1h-8.1z" class="a"/><path d="m293.6 642.4h8.1v8.1h-8.1z" class="a"/><path d="m302.5 642.4h8.1v8.1h-8.1z" class="a"/><path d="m311.4 642.4h8.1v8.1h-8.1z" class="a"/><path d="m329.2 687h8.1v8.1h-8.1z" class="b"/><path d="m320.3 669.2h8.1v8.1h-8.1z" class="b"/><path d="m338.1 669.2h8.1v8.1h-8.1z" class="b"/><path d="m347 678.1h8.1v8.1h-8.1z" class="b"/><path d="m347 669.2h8.1v8.1h-8.1z" class="b"/><path d="m320.3 660.2h8.1v8.1h-8.1z" class="b"/><path d="m329.2 660.2h8.1v8.1h-8.1z" class="b"/><path d="m338.1 660.2h8.1v8.1h-8.1z" class="b"/><path d="m320.3 651.3h8.1v8.1h-8.1z" class="b"/><path d="m329.2 651.3h8.1v8.1h-8.1z" class="a"/><path d="m338.1 651.3h8.1v8.1h-8.1z" class="a"/><path d="m320.3 642.4h8.1v8.1h-8.1z" class="a"/><path d="m329.2 642.4h8.1v8.1h-8.1z" class="a"/><path d="m338.1 642.4h8.1v8.1h-8.1z" class="a"/><path d="m347 660.2h8.1v8.1h-8.1z" class="a"/><path d="m347 651.3h8.1v8.1h-8.1z" class="b"/><path d="m347 642.4h8.1v8.1h-8.1z" class="a"/><path d="m364.9 704.8h8.1v8.1h-8.1z" class="b"/><path d="m391.6 713.7h8.1v8.1h-8.1z" class="b"/><path d="m356 687h8.1v8.1h-8.1z" class="b"/><path d="m356 678.1h8.1v8.1h-8.1z" class="a"/><path d="m356 669.2h8.1v8.1h-8.1z" class="b"/><path d="m382.7 687h8.1v8.1h-8.1z" class="b"/><path d="m373.8 678.1h8.1v8.1h-8.1z" class="b"/><path d="m391.6 678.1h8.1v8.1h-8.1z" class="b"/><path d="m373.8 669.2h8.1v8.1h-8.1z" class="b"/><path d="m382.7 669.2h8.1v8.1h-8.1z" class="a"/><path d="m356 660.2h8.1v8.1h-8.1z" class="b"/><path d="m364.9 660.2h8.1v8.1h-8.1z" class="a"/><path d="m356 651.3h8.1v8.1h-8.1z" class="a"/><path d="m364.9 651.3h8.1v8.1h-8.1z" class="a"/><path d="m356 642.4h8.1v8.1h-8.1z" class="a"/><path d="m364.9 642.4h8.1v8.1h-8.1z" class="a"/><path d="m382.7 660.2h8.1v8.1h-8.1z" class="a"/><path d="m391.6 660.2h8.1v8.1h-8.1z" class="b"/><path d="m373.8 651.3h8.1v8.1h-8.1z" class="a"/><path d="m382.7 651.3h8.1v8.1h-8.1z" class="b"/><path d="m391.6 651.3h8.1v8.1h-8.1z" class="a"/><path d="m373.8 642.4h8.1v8.1h-8.1z" class="a"/><path d="m382.7 642.4h8.1v8.1h-8.1z" class="a"/><path d="m391.6 642.4h8.1v8.1h-8.1z" class="a"/><path d="m418.3 695.9h8.1v8.1h-8.1z" class="a"/><path d="m445 704.8h8.1v8.1h-8.1z" class="b"/><path d="m409.4 687h8.1v8.1h-8.1z" class="b"/><path d="m400.5 669.2h8.1v8.1h-8.1z" class="b"/><path d="m418.3 669.2h8.1v8.1h-8.1z" class="b"/><path d="m427.2 678.1h8.1v8.1h-8.1z" class="b"/><path d="m436.1 678.1h8.1v8.1h-8.1z" class="a"/><path d="m427.2 669.2h8.1v8.1h-8.1z" class="b"/><path d="m462.8 687h8.1v8.1h-8.1z" class="b"/><path d="m453.9 678.1h8.1v8.1h-8.1z" class="b"/><path d="m453.9 669.2h8.1v8.1h-8.1z" class="b"/><path d="m462.8 669.2h8.1v8.1h-8.1z" class="a"/><path d="m400.5 660.2h8.1v8.1h-8.1z" class="b"/><path d="m409.4 660.2h8.1v8.1h-8.1z" class="b"/><path d="m400.5 651.3h8.1v8.1h-8.1z" class="b"/><path d="m409.4 651.3h8.1v8.1h-8.1z" class="a"/><path d="m418.3 651.3h8.1v8.1h-8.1z" class="a"/><path d="m400.5 642.4h8.1v8.1h-8.1z" class="a"/><path d="m409.4 642.4h8.1v8.1h-8.1z" class="a"/><path d="m418.3 642.4h8.1v8.1h-8.1z" class="a"/><path d="m427.2 660.2h8.1v8.1h-8.1z" class="a"/><path d="m436.1 660.2h8.1v8.1h-8.1z" class="b"/><path d="m445 660.2h8.1v8.1h-8.1z" class="a"/><path d="m427.2 651.3h8.1v8.1h-8.1z" class="b"/><path d="m436.1 651.3h8.1v8.1h-8.1z" class="a"/><path d="m445 651.3h8.1v8.1h-8.1z" class="a"/><path d="m427.2 642.4h8.1v8.1h-8.1z" class="a"/><path d="m436.1 642.4h8.1v8.1h-8.1z" class="a"/><path d="m445 642.4h8.1v8.1h-8.1z" class="a"/><path d="m453.9 660.2h8.1v8.1h-8.1z" class="b"/><path d="m462.8 660.2h8.1v8.1h-8.1z" class="a"/><path d="m453.9 651.3h8.1v8.1h-8.1z" class="a"/><path d="m462.8 651.3h8.1v8.1h-8.1z" class="b"/><path d="m453.9 642.4h8.1v8.1h-8.1z" class="a"/><path d="m462.8 642.4h8.1v8.1h-8.1z" class="a"/><path d="m471.8 669.1h8.1v8.1h-8.1z" class="b"/><path d="m498.5 687h8.1v8.1h-8.1z" class="b"/><path d="m489.6 678h8.1v8.1h-8.1z" class="b"/><path d="m507.4 678h8.1v8.1h-8.1z" class="b"/><path d="m489.6 669.1h8.1v8.1h-8.1z" class="b"/><path d="m498.5 669.1h8.1v8.1h-8.1z" class="a"/><path d="m480.7 660.2h8.1v8.1h-8.1z" class="a"/><path d="m471.8 651.3h8.1v8.1h-8.1z" class="a"/><path d="m480.7 651.3h8.1v8.1h-8.1z" class="a"/><path d="m471.8 642.4h8.1v8.1h-8.1z" class="a"/><path d="m480.7 642.4h8.1v8.1h-8.1z" class="a"/><path d="m498.5 660.2h8.1v8.1h-8.1z" class="a"/><path d="m507.4 660.2h8.1v8.1h-8.1z" class="b"/><path d="m489.6 651.3h8.1v8.1h-8.1z" class="a"/><path d="m498.5 651.3h8.1v8.1h-8.1z" class="b"/><path d="m507.4 651.3h8.1v8.1h-8.1z" class="a"/><path d="m489.6 642.4h8.1v8.1h-8.1z" class="a"/><path d="m498.5 642.4h8.1v8.1h-8.1z" class="a"/><path d="m507.4 642.4h8.1v8.1h-8.1z" class="a"/><path d="m534.1 695.9h8.1v8.1h-8.1z" class="a"/><path d="m560.9 704.8h8.1v8.1h-8.1z" class="b"/><path d="m525.2 687h8.1v8.1h-8.1z" class="b"/><path d="m516.3 669.2h8.1v8.1h-8.1z" class="b"/><path d="m534.1 669.2h8.1v8.1h-8.1z" class="b"/><path d="m543 678.1h8.1v8.1h-8.1z" class="b"/><path d="m551.9 678.1h8.1v8.1h-8.1z" class="a"/><path d="m543 669.2h8.1v8.1h-8.1z" class="b"/><path d="m578.7 687h8.1v8.1h-8.1z" class="b"/><path d="m569.8 678.1h8.1v8.1h-8.1z" class="b"/><path d="m569.8 669.2h8.1v8.1h-8.1z" class="b"/><path d="m578.7 669.2h8.1v8.1h-8.1z" class="a"/><path d="m516.3 660.2h8.1v8.1h-8.1z" class="b"/><path d="m525.2 660.2h8.1v8.1h-8.1z" class="b"/><path d="m516.3 651.3h8.1v8.1h-8.1z" class="b"/><path d="m525.2 651.3h8.1v8.1h-8.1z" class="a"/><path d="m534.1 651.3h8.1v8.1h-8.1z" class="a"/><path d="m516.3 642.4h8.1v8.1h-8.1z" class="a"/><path d="m525.2 642.4h8.1v8.1h-8.1z" class="a"/><path d="m534.1 642.4h8.1v8.1h-8.1z" class="a"/><path d="m543 660.2h8.1v8.1h-8.1z" class="a"/><path d="m551.9 660.2h8.1v8.1h-8.1z" class="b"/><path d="m560.9 660.2h8.1v8.1h-8.1z" class="a"/><path d="m543 651.3h8.1v8.1h-8.1z" class="b"/><path d="m551.9 651.3h8.1v8.1h-8.1z" class="a"/><path d="m560.9 651.3h8.1v8.1h-8.1z" class="a"/><path d="m543 642.4h8.1v8.1h-8.1z" class="a"/><path d="m551.9 642.4h8.1v8.1h-8.1z" class="a"/><path d="m560.9 642.4h8.1v8.1h-8.1z" class="a"/><path d="m569.8 660.2h8.1v8.1h-8.1z" class="b"/><path d="m578.7 660.2h8.1v8.1h-8.1z" class="a"/><path d="m569.8 651.3h8.1v8.1h-8.1z" class="a"/><path d="m578.7 651.3h8.1v8.1h-8.1z" class="b"/><path d="m569.8 642.4h8.1v8.1h-8.1z" class="a"/><path d="m578.7 642.4h8.1v8.1h-8.1z" class="a"/><path d="m26.3 780h8.1v8.1h-8.1z" class="c"/><path d="m53.1 788.9h8.1v8.1h-8.1z" class="d"/><path d="m17.4 771.1h8.1v8.1h-8.1z" class="d"/><path d="m8.5 753.3h8.1v8.1h-8.1z" class="d"/><path d="m26.3 753.3h8.1v8.1h-8.1z" class="d"/><path d="m44.1 762.2h8.1v8.1h-8.1z" class="c"/><path d="m44.1 753.3h8.1v8.1h-8.1z" class="d"/><path d="m62 762.2h8.1v8.1h-8.1z" class="d"/><path d="m79.8 762.2h8.1v8.1h-8.1z" class="d"/><path d="m62 753.3h8.1v8.1h-8.1z" class="d"/><path d="m70.9 753.3h8.1v8.1h-8.1z" class="c"/><path d="m8.5 744.3h8.1v8.1h-8.1z" class="d"/><path d="m17.4 744.3h8.1v8.1h-8.1z" class="d"/><path d="m26.3 744.3h8.1v8.1h-8.1z" class="d"/><path d="m8.5 735.4h8.1v8.1h-8.1z" class="d"/><path d="m17.4 735.4h8.1v8.1h-8.1z" class="c"/><path d="m26.3 735.4h8.1v8.1h-8.1z" class="c"/><path d="m8.5 726.5h8.1v8.1h-8.1z" class="c"/><path d="m17.4 726.5h8.1v8.1h-8.1z" class="c"/><path d="m26.3 726.5h8.1v8.1h-8.1z" class="c"/><path d="m35.2 744.3h8.1v8.1h-8.1z" class="c"/><path d="m44.1 744.3h8.1v8.1h-8.1z" class="d"/><path d="m53.1 744.3h8.1v8.1h-8.1z" class="c"/><path d="m35.2 735.4h8.1v8.1h-8.1z" class="d"/><path d="m44.1 735.4h8.1v8.1h-8.1z" class="c"/><path d="m53.1 735.4h8.1v8.1h-8.1z" class="c"/><path d="m35.2 726.5h8.1v8.1h-8.1z" class="c"/><path d="m44.1 726.5h8.1v8.1h-8.1z" class="c"/><path d="m53.1 726.5h8.1v8.1h-8.1z" class="c"/><path d="m62 744.3h8.1v8.1h-8.1z" class="d"/><path d="m70.9 744.3h8.1v8.1h-8.1z" class="c"/><path d="m79.8 744.3h8.1v8.1h-8.1z" class="d"/><path d="m62 735.4h8.1v8.1h-8.1z" class="c"/><path d="m70.9 735.4h8.1v8.1h-8.1z" class="d"/><path d="m79.8 735.4h8.1v8.1h-8.1z" class="c"/><path d="m62 726.5h8.1v8.1h-8.1z" class="c"/><path d="m70.9 726.5h8.1v8.1h-8.1z" class="c"/><path d="m79.8 726.5h8.1v8.1h-8.1z" class="c"/><path d="m133.2 788.9h8.1v8.1h-8.1z" class="d"/><path d="m97.6 771.1h8.1v8.1h-8.1z" class="d"/><path d="m88.7 753.3h8.1v8.1h-8.1z" class="d"/><path d="m106.5 753.3h8.1v8.1h-8.1z" class="d"/><path d="m124.3 771.1h8.1v8.1h-8.1z" class="d"/><path d="m115.4 762.2h8.1v8.1h-8.1z" class="d"/><path d="m124.3 762.2h8.1v8.1h-8.1z" class="c"/><path d="m115.4 753.3h8.1v8.1h-8.1z" class="d"/><path d="m124.3 753.3h8.1v8.1h-8.1z" class="d"/><path d="m151 771.1h8.1v8.1h-8.1z" class="d"/><path d="m142.1 762.2h8.1v8.1h-8.1z" class="d"/><path d="m160 762.2h8.1v8.1h-8.1z" class="d"/><path d="m142.1 753.3h8.1v8.1h-8.1z" class="d"/><path d="m151 753.3h8.1v8.1h-8.1z" class="c"/><path d="m88.7 744.3h8.1v8.1h-8.1z" class="d"/><path d="m97.6 744.3h8.1v8.1h-8.1z" class="d"/><path d="m106.5 744.3h8.1v8.1h-8.1z" class="d"/><path d="m88.7 735.4h8.1v8.1h-8.1z" class="d"/><path d="m97.6 735.4h8.1v8.1h-8.1z" class="c"/><path d="m106.5 735.4h8.1v8.1h-8.1z" class="c"/><path d="m88.7 726.5h8.1v8.1h-8.1z" class="c"/><path d="m97.6 726.5h8.1v8.1h-8.1z" class="c"/><path d="m106.5 726.5h8.1v8.1h-8.1z" class="c"/><path d="m115.4 744.3h8.1v8.1h-8.1z" class="c"/><path d="m124.3 744.3h8.1v8.1h-8.1z" class="d"/><path d="m133.2 744.3h8.1v8.1h-8.1z" class="c"/><path d="m115.4 735.4h8.1v8.1h-8.1z" class="d"/><path d="m124.3 735.4h8.1v8.1h-8.1z" class="c"/><path d="m133.2 735.4h8.1v8.1h-8.1z" class="c"/><path d="m115.4 726.5h8.1v8.1h-8.1z" class="c"/><path d="m124.3 726.5h8.1v8.1h-8.1z" class="c"/><path d="m133.2 726.5h8.1v8.1h-8.1z" class="c"/><path d="m151 744.3h8.1v8.1h-8.1z" class="c"/><path d="m160 744.3h8.1v8.1h-8.1z" class="d"/><path d="m142.1 735.4h8.1v8.1h-8.1z" class="c"/><path d="m151 735.4h8.1v8.1h-8.1z" class="d"/><path d="m160 735.4h8.1v8.1h-8.1z" class="c"/><path d="m142.1 726.5h8.1v8.1h-8.1z" class="c"/><path d="m151 726.5h8.1v8.1h-8.1z" class="c"/><path d="m160 726.5h8.1v8.1h-8.1z" class="c"/><path d="m186.7 780h8.1v8.1h-8.1z" class="c"/><path d="m213.4 788.9h8.1v8.1h-8.1z" class="d"/><path d="m177.7 771.1h8.1v8.1h-8.1z" class="d"/><path d="m168.8 753.3h8.1v8.1h-8.1z" class="d"/><path d="m186.7 753.3h8.1v8.1h-8.1z" class="d"/><path d="m195.6 762.2h8.1v8.1h-8.1z" class="d"/><path d="m204.5 762.2h8.1v8.1h-8.1z" class="c"/><path d="m195.6 753.3h8.1v8.1h-8.1z" class="d"/><path d="m231.2 771.1h8.1v8.1h-8.1z" class="d"/><path d="m222.3 762.2h8.1v8.1h-8.1z" class="d"/><path d="m222.3 753.3h8.1v8.1h-8.1z" class="d"/><path d="m231.2 753.3h8.1v8.1h-8.1z" class="c"/><path d="m168.8 744.4h8.1v8.1h-8.1z" class="d"/><path d="m177.7 744.4h8.1v8.1h-8.1z" class="d"/><path d="m168.8 735.5h8.1v8.1h-8.1z" class="d"/><path d="m177.7 735.5h8.1v8.1h-8.1z" class="c"/><path d="m186.7 735.5h8.1v8.1h-8.1z" class="c"/><path d="m168.8 726.5h8.1v8.1h-8.1z" class="c"/><path d="m177.7 726.5h8.1v8.1h-8.1z" class="c"/><path d="m186.7 726.5h8.1v8.1h-8.1z" class="c"/><path d="m195.6 744.4h8.1v8.1h-8.1z" class="c"/><path d="m204.5 744.4h8.1v8.1h-8.1z" class="d"/><path d="m213.4 744.4h8.1v8.1h-8.1z" class="c"/><path d="m195.6 735.5h8.1v8.1h-8.1z" class="d"/><path d="m204.5 735.5h8.1v8.1h-8.1z" class="c"/><path d="m213.4 735.5h8.1v8.1h-8.1z" class="c"/><path d="m195.6 726.5h8.1v8.1h-8.1z" class="c"/><path d="m204.5 726.5h8.1v8.1h-8.1z" class="c"/><path d="m213.4 726.5h8.1v8.1h-8.1z" class="c"/><path d="m222.3 744.4h8.1v8.1h-8.1z" class="d"/><path d="m231.2 744.4h8.1v8.1h-8.1z" class="c"/><path d="m222.3 735.5h8.1v8.1h-8.1z" class="c"/><path d="m231.2 735.5h8.1v8.1h-8.1z" class="d"/><path d="m222.3 726.5h8.1v8.1h-8.1z" class="c"/><path d="m231.2 726.5h8.1v8.1h-8.1z" class="c"/><path d="m258 780h8.1v8.1h-8.1z" class="c"/><path d="m284.7 788.9h8.1v8.1h-8.1z" class="d"/><path d="m240.1 753.3h8.1v8.1h-8.1z" class="d"/><path d="m258 753.3h8.1v8.1h-8.1z" class="d"/><path d="m275.8 762.2h8.1v8.1h-8.1z" class="c"/><path d="m275.8 753.3h8.1v8.1h-8.1z" class="d"/><path d="m293.6 762.2h8.1v8.1h-8.1z" class="d"/><path d="m311.4 762.2h8.1v8.1h-8.1z" class="d"/><path d="m293.6 753.3h8.1v8.1h-8.1z" class="d"/><path d="m302.5 753.3h8.1v8.1h-8.1z" class="c"/><path d="m240.1 744.3h8.1v8.1h-8.1z" class="d"/><path d="m249.1 744.3h8.1v8.1h-8.1z" class="d"/><path d="m258 744.3h8.1v8.1h-8.1z" class="d"/><path d="m240.1 735.4h8.1v8.1h-8.1z" class="d"/><path d="m249.1 735.4h8.1v8.1h-8.1z" class="c"/><path d="m258 735.4h8.1v8.1h-8.1z" class="c"/><path d="m240.1 726.5h8.1v8.1h-8.1z" class="c"/><path d="m249.1 726.5h8.1v8.1h-8.1z" class="c"/><path d="m258 726.5h8.1v8.1h-8.1z" class="c"/><path d="m266.9 744.3h8.1v8.1h-8.1z" class="c"/><path d="m275.8 744.3h8.1v8.1h-8.1z" class="d"/><path d="m284.7 744.3h8.1v8.1h-8.1z" class="c"/><path d="m266.9 735.4h8.1v8.1h-8.1z" class="d"/><path d="m275.8 735.4h8.1v8.1h-8.1z" class="c"/><path d="m284.7 735.4h8.1v8.1h-8.1z" class="c"/><path d="m266.9 726.5h8.1v8.1h-8.1z" class="c"/><path d="m275.8 726.5h8.1v8.1h-8.1z" class="c"/><path d="m284.7 726.5h8.1v8.1h-8.1z" class="c"/><path d="m293.6 744.3h8.1v8.1h-8.1z" class="d"/><path d="m302.5 744.3h8.1v8.1h-8.1z" class="c"/><path d="m311.4 744.3h8.1v8.1h-8.1z" class="d"/><path d="m293.6 735.4h8.1v8.1h-8.1z" class="c"/><path d="m302.5 735.4h8.1v8.1h-8.1z" class="d"/><path d="m311.4 735.4h8.1v8.1h-8.1z" class="c"/><path d="m293.6 726.5h8.1v8.1h-8.1z" class="c"/><path d="m302.5 726.5h8.1v8.1h-8.1z" class="c"/><path d="m311.4 726.5h8.1v8.1h-8.1z" class="c"/><path d="m329.2 771.1h8.1v8.1h-8.1z" class="d"/><path d="m320.3 753.3h8.1v8.1h-8.1z" class="d"/><path d="m338.1 753.3h8.1v8.1h-8.1z" class="d"/><path d="m347 762.2h8.1v8.1h-8.1z" class="d"/><path d="m347 753.3h8.1v8.1h-8.1z" class="d"/><path d="m320.3 744.4h8.1v8.1h-8.1z" class="d"/><path d="m329.2 744.4h8.1v8.1h-8.1z" class="d"/><path d="m338.1 744.4h8.1v8.1h-8.1z" class="d"/><path d="m320.3 735.5h8.1v8.1h-8.1z" class="d"/><path d="m329.2 735.5h8.1v8.1h-8.1z" class="c"/><path d="m338.1 735.5h8.1v8.1h-8.1z" class="c"/><path d="m320.3 726.5h8.1v8.1h-8.1z" class="c"/><path d="m329.2 726.5h8.1v8.1h-8.1z" class="c"/><path d="m338.1 726.5h8.1v8.1h-8.1z" class="c"/><path d="m347 744.4h8.1v8.1h-8.1z" class="c"/><path d="m347 735.5h8.1v8.1h-8.1z" class="d"/><path d="m347 726.5h8.1v8.1h-8.1z" class="c"/><path d="m364.9 788.9h8.1v8.1h-8.1z" class="d"/><path d="m391.6 797.9h8.1v8.1h-8.1z" class="d"/><path d="m356 771.1h8.1v8.1h-8.1z" class="d"/><path d="m356 762.2h8.1v8.1h-8.1z" class="c"/><path d="m356 753.3h8.1v8.1h-8.1z" class="d"/><path d="m382.7 771.1h8.1v8.1h-8.1z" class="d"/><path d="m373.8 762.2h8.1v8.1h-8.1z" class="d"/><path d="m391.6 762.2h8.1v8.1h-8.1z" class="d"/><path d="m373.8 753.3h8.1v8.1h-8.1z" class="d"/><path d="m382.7 753.3h8.1v8.1h-8.1z" class="c"/><path d="m356 744.4h8.1v8.1h-8.1z" class="d"/><path d="m364.9 744.4h8.1v8.1h-8.1z" class="c"/><path d="m356 735.5h8.1v8.1h-8.1z" class="c"/><path d="m364.9 735.5h8.1v8.1h-8.1z" class="c"/><path d="m356 726.5h8.1v8.1h-8.1z" class="c"/><path d="m364.9 726.5h8.1v8.1h-8.1z" class="c"/><path d="m382.7 744.4h8.1v8.1h-8.1z" class="c"/><path d="m391.6 744.4h8.1v8.1h-8.1z" class="d"/><path d="m373.8 735.5h8.1v8.1h-8.1z" class="c"/><path d="m382.7 735.5h8.1v8.1h-8.1z" class="d"/><path d="m391.6 735.5h8.1v8.1h-8.1z" class="c"/><path d="m373.8 726.5h8.1v8.1h-8.1z" class="c"/><path d="m382.7 726.5h8.1v8.1h-8.1z" class="c"/><path d="m391.6 726.5h8.1v8.1h-8.1z" class="c"/><path d="m418.3 780.1h8.1v8.1h-8.1z" class="c"/><path d="m445 789h8.1v8.1h-8.1z" class="d"/><path d="m409.4 771.1h8.1v8.1h-8.1z" class="d"/><path d="m400.5 753.3h8.1v8.1h-8.1z" class="d"/><path d="m418.3 753.3h8.1v8.1h-8.1z" class="d"/><path d="m427.2 762.2h8.1v8.1h-8.1z" class="d"/><path d="m436.1 762.2h8.1v8.1h-8.1z" class="c"/><path d="m427.2 753.3h8.1v8.1h-8.1z" class="d"/><path d="m462.8 771.1h8.1v8.1h-8.1z" class="d"/><path d="m453.9 762.2h8.1v8.1h-8.1z" class="d"/><path d="m453.9 753.3h8.1v8.1h-8.1z" class="d"/><path d="m462.8 753.3h8.1v8.1h-8.1z" class="c"/><path d="m400.5 744.4h8.1v8.1h-8.1z" class="d"/><path d="m409.4 744.4h8.1v8.1h-8.1z" class="d"/><path d="m400.5 735.5h8.1v8.1h-8.1z" class="d"/><path d="m409.4 735.5h8.1v8.1h-8.1z" class="c"/><path d="m418.3 735.5h8.1v8.1h-8.1z" class="c"/><path d="m400.5 726.6h8.1v8.1h-8.1z" class="c"/><path d="m409.4 726.6h8.1v8.1h-8.1z" class="c"/><path d="m418.3 726.6h8.1v8.1h-8.1z" class="c"/><path d="m427.2 744.4h8.1v8.1h-8.1z" class="c"/><path d="m436.1 744.4h8.1v8.1h-8.1z" class="d"/><path d="m445 744.4h8.1v8.1h-8.1z" class="c"/><path d="m427.2 735.5h8.1v8.1h-8.1z" class="d"/><path d="m436.1 735.5h8.1v8.1h-8.1z" class="c"/><path d="m445 735.5h8.1v8.1h-8.1z" class="c"/><path d="m427.2 726.6h8.1v8.1h-8.1z" class="c"/><path d="m436.1 726.6h8.1v8.1h-8.1z" class="c"/><path d="m445 726.6h8.1v8.1h-8.1z" class="c"/><path d="m453.9 744.4h8.1v8.1h-8.1z" class="d"/><path d="m462.8 744.4h8.1v8.1h-8.1z" class="c"/><path d="m453.9 735.5h8.1v8.1h-8.1z" class="c"/><path d="m462.8 735.5h8.1v8.1h-8.1z" class="d"/><path d="m453.9 726.6h8.1v8.1h-8.1z" class="c"/><path d="m462.8 726.6h8.1v8.1h-8.1z" class="c"/><path d="m471.8 753.3h8.1v8.1h-8.1z" class="d"/><path d="m498.5 771.1h8.1v8.1h-8.1z" class="d"/><path d="m489.6 762.2h8.1v8.1h-8.1z" class="d"/><path d="m507.4 762.2h8.1v8.1h-8.1z" class="d"/><path d="m489.6 753.3h8.1v8.1h-8.1z" class="d"/><path d="m498.5 753.3h8.1v8.1h-8.1z" class="c"/><path d="m480.7 744.3h8.1v8.1h-8.1z" class="c"/><path d="m471.8 735.4h8.1v8.1h-8.1z" class="c"/><path d="m480.7 735.4h8.1v8.1h-8.1z" class="c"/><path d="m471.8 726.5h8.1v8.1h-8.1z" class="c"/><path d="m480.7 726.5h8.1v8.1h-8.1z" class="c"/><path d="m498.5 744.3h8.1v8.1h-8.1z" class="c"/><path d="m507.4 744.3h8.1v8.1h-8.1z" class="d"/><path d="m489.6 735.4h8.1v8.1h-8.1z" class="c"/><path d="m498.5 735.4h8.1v8.1h-8.1z" class="d"/><path d="m507.4 735.4h8.1v8.1h-8.1z" class="c"/><path d="m489.6 726.5h8.1v8.1h-8.1z" class="c"/><path d="m498.5 726.5h8.1v8.1h-8.1z" class="c"/><path d="m507.4 726.5h8.1v8.1h-8.1z" class="c"/><path d="m534.1 780h8.1v8.1h-8.1z" class="c"/><path d="m560.9 788.9h8.1v8.1h-8.1z" class="d"/><path d="m525.2 771.1h8.1v8.1h-8.1z" class="d"/><path d="m516.3 753.3h8.1v8.1h-8.1z" class="d"/><path d="m534.1 753.3h8.1v8.1h-8.1z" class="d"/><path d="m543 762.2h8.1v8.1h-8.1z" class="d"/><path d="m551.9 762.2h8.1v8.1h-8.1z" class="c"/><path d="m543 753.3h8.1v8.1h-8.1z" class="d"/><path d="m578.7 771.1h8.1v8.1h-8.1z" class="d"/><path d="m569.8 762.2h8.1v8.1h-8.1z" class="d"/><path d="m569.8 753.3h8.1v8.1h-8.1z" class="d"/><path d="m578.7 753.3h8.1v8.1h-8.1z" class="c"/><path d="m516.3 744.3h8.1v8.1h-8.1z" class="d"/><path d="m525.2 744.3h8.1v8.1h-8.1z" class="d"/><path d="m516.3 735.4h8.1v8.1h-8.1z" class="d"/><path d="m525.2 735.4h8.1v8.1h-8.1z" class="c"/><path d="m534.1 735.4h8.1v8.1h-8.1z" class="c"/><path d="m516.3 726.5h8.1v8.1h-8.1z" class="c"/><path d="m525.2 726.5h8.1v8.1h-8.1z" class="c"/><path d="m534.1 726.5h8.1v8.1h-8.1z" class="c"/><path d="m543 744.3h8.1v8.1h-8.1z" class="c"/><path d="m551.9 744.3h8.1v8.1h-8.1z" class="d"/><path d="m560.9 744.3h8.1v8.1h-8.1z" class="c"/><path d="m543 735.4h8.1v8.1h-8.1z" class="d"/><path d="m551.9 735.4h8.1v8.1h-8.1z" class="c"/><path d="m560.9 735.4h8.1v8.1h-8.1z" class="c"/><path d="m543 726.5h8.1v8.1h-8.1z" class="c"/><path d="m551.9 726.5h8.1v8.1h-8.1z" class="c"/><path d="m560.9 726.5h8.1v8.1h-8.1z" class="c"/><path d="m569.8 744.3h8.1v8.1h-8.1z" class="d"/><path d="m578.7 744.3h8.1v8.1h-8.1z" class="c"/><path d="m569.8 735.4h8.1v8.1h-8.1z" class="c"/><path d="m578.7 735.4h8.1v8.1h-8.1z" class="d"/><path d="m569.8 726.5h8.1v8.1h-8.1z" class="c"/><path d="m578.7 726.5h8.1v8.1h-8.1z" class="c"/><path d="m26.3 611.7h8.1v8.1h-8.1z" class="c"/><path d="m53.1 620.6h8.1v8.1h-8.1z" class="e"/><path d="m17.4 602.8h8.1v8.1h-8.1z" class="e"/><path d="m8.5 585h8.1v8.1h-8.1z" class="e"/><path d="m26.3 585h8.1v8.1h-8.1z" class="e"/><path d="m44.1 593.9h8.1v8.1h-8.1z" class="c"/><path d="m44.1 585h8.1v8.1h-8.1z" class="e"/><path d="m62 593.9h8.1v8.1h-8.1z" class="e"/><path d="m79.8 593.9h8.1v8.1h-8.1z" class="e"/><path d="m62 585h8.1v8.1h-8.1z" class="e"/><path d="m70.9 585h8.1v8.1h-8.1z" class="c"/><path d="m8.5 576.1h8.1v8.1h-8.1z" class="e"/><path d="m17.4 576.1h8.1v8.1h-8.1z" class="e"/><path d="m26.3 576.1h8.1v8.1h-8.1z" class="e"/><path d="m8.5 567.1h8.1v8.1h-8.1z" class="e"/><path d="m17.4 567.1h8.1v8.1h-8.1z" class="c"/><path d="m26.3 567.1h8.1v8.1h-8.1z" class="c"/><path d="m8.5 558.2h8.1v8.1h-8.1z" class="c"/><path d="m17.4 558.2h8.1v8.1h-8.1z" class="c"/><path d="m26.3 558.2h8.1v8.1h-8.1z" class="c"/><path d="m35.2 576.1h8.1v8.1h-8.1z" class="c"/><path d="m44.1 576.1h8.1v8.1h-8.1z" class="e"/><path d="m53.1 576.1h8.1v8.1h-8.1z" class="c"/><path d="m35.2 567.1h8.1v8.1h-8.1z" class="e"/><path d="m44.1 567.1h8.1v8.1h-8.1z" class="c"/><path d="m53.1 567.1h8.1v8.1h-8.1z" class="c"/><path d="m35.2 558.2h8.1v8.1h-8.1z" class="c"/><path d="m44.1 558.2h8.1v8.1h-8.1z" class="c"/><path d="m53.1 558.2h8.1v8.1h-8.1z" class="c"/><path d="m62 576.1h8.1v8.1h-8.1z" class="e"/><path d="m70.9 576.1h8.1v8.1h-8.1z" class="c"/><path d="m79.8 576.1h8.1v8.1h-8.1z" class="e"/><path d="m62 567.1h8.1v8.1h-8.1z" class="c"/><path d="m70.9 567.1h8.1v8.1h-8.1z" class="e"/><path d="m79.8 567.1h8.1v8.1h-8.1z" class="c"/><path d="m62 558.2h8.1v8.1h-8.1z" class="c"/><path d="m70.9 558.2h8.1v8.1h-8.1z" class="c"/><path d="m79.8 558.2h8.1v8.1h-8.1z" class="c"/><path d="m133.2 620.7h8.1v8.1h-8.1z" class="e"/><path d="m97.6 602.8h8.1v8.1h-8.1z" class="e"/><path d="m88.7 585h8.1v8.1h-8.1z" class="e"/><path d="m106.5 585h8.1v8.1h-8.1z" class="e"/><path d="m124.3 602.8h8.1v8.1h-8.1z" class="e"/><path d="m115.4 593.9h8.1v8.1h-8.1z" class="e"/><path d="m124.3 593.9h8.1v8.1h-8.1z" class="c"/><path d="m115.4 585h8.1v8.1h-8.1z" class="e"/><path d="m124.3 585h8.1v8.1h-8.1z" class="e"/><path d="m151 602.8h8.1v8.1h-8.1z" class="e"/><path d="m142.1 593.9h8.1v8.1h-8.1z" class="e"/><path d="m160 593.9h8.1v8.1h-8.1z" class="e"/><path d="m142.1 585h8.1v8.1h-8.1z" class="e"/><path d="m151 585h8.1v8.1h-8.1z" class="c"/><path d="m88.7 576.1h8.1v8.1h-8.1z" class="e"/><path d="m97.6 576.1h8.1v8.1h-8.1z" class="e"/><path d="m106.5 576.1h8.1v8.1h-8.1z" class="e"/><path d="m88.7 567.2h8.1v8.1h-8.1z" class="e"/><path d="m97.6 567.2h8.1v8.1h-8.1z" class="c"/><path d="m106.5 567.2h8.1v8.1h-8.1z" class="c"/><path d="m88.7 558.3h8.1v8.1h-8.1z" class="c"/><path d="m97.6 558.3h8.1v8.1h-8.1z" class="c"/><path d="m106.5 558.3h8.1v8.1h-8.1z" class="c"/><path d="m115.4 576.1h8.1v8.1h-8.1z" class="c"/><path d="m124.3 576.1h8.1v8.1h-8.1z" class="e"/><path d="m133.2 576.1h8.1v8.1h-8.1z" class="c"/><path d="m115.4 567.2h8.1v8.1h-8.1z" class="e"/><path d="m124.3 567.2h8.1v8.1h-8.1z" class="c"/><path d="m133.2 567.2h8.1v8.1h-8.1z" class="c"/><path d="m115.4 558.3h8.1v8.1h-8.1z" class="c"/><path d="m124.3 558.3h8.1v8.1h-8.1z" class="c"/><path d="m133.2 558.3h8.1v8.1h-8.1z" class="c"/><path d="m151 576.1h8.1v8.1h-8.1z" class="c"/><path d="m160 576.1h8.1v8.1h-8.1z" class="e"/><path d="m142.1 567.2h8.1v8.1h-8.1z" class="c"/><path d="m151 567.2h8.1v8.1h-8.1z" class="e"/><path d="m160 567.2h8.1v8.1h-8.1z" class="c"/><path d="m142.1 558.3h8.1v8.1h-8.1z" class="c"/><path d="m151 558.3h8.1v8.1h-8.1z" class="c"/><path d="m160 558.3h8.1v8.1h-8.1z" class="c"/><path d="m186.7 611.8h8.1v8.1h-8.1z" class="c"/><path d="m213.4 620.7h8.1v8.1h-8.1z" class="e"/><path d="m177.7 602.9h8.1v8.1h-8.1z" class="e"/><path d="m168.8 585h8.1v8.1h-8.1z" class="e"/><path d="m186.7 585h8.1v8.1h-8.1z" class="e"/><path d="m195.6 594h8.1v8.1h-8.1z" class="e"/><path d="m204.5 594h8.1v8.1h-8.1z" class="c"/><path d="m195.6 585h8.1v8.1h-8.1z" class="e"/><path d="m231.2 602.9h8.1v8.1h-8.1z" class="e"/><path d="m222.3 594h8.1v8.1h-8.1z" class="e"/><path d="m222.3 585h8.1v8.1h-8.1z" class="e"/><path d="m231.2 585h8.1v8.1h-8.1z" class="c"/><path d="m168.8 576.1h8.1v8.1h-8.1z" class="e"/><path d="m177.7 576.1h8.1v8.1h-8.1z" class="e"/><path d="m168.8 567.2h8.1v8.1h-8.1z" class="e"/><path d="m177.7 567.2h8.1v8.1h-8.1z" class="c"/><path d="m186.7 567.2h8.1v8.1h-8.1z" class="c"/><path d="m168.8 558.3h8.1v8.1h-8.1z" class="c"/><path d="m177.7 558.3h8.1v8.1h-8.1z" class="c"/><path d="m186.7 558.3h8.1v8.1h-8.1z" class="c"/><path d="m195.6 576.1h8.1v8.1h-8.1z" class="c"/><path d="m204.5 576.1h8.1v8.1h-8.1z" class="e"/><path d="m213.4 576.1h8.1v8.1h-8.1z" class="c"/><path d="m195.6 567.2h8.1v8.1h-8.1z" class="e"/><path d="m204.5 567.2h8.1v8.1h-8.1z" class="c"/><path d="m213.4 567.2h8.1v8.1h-8.1z" class="c"/><path d="m195.6 558.3h8.1v8.1h-8.1z" class="c"/><path d="m204.5 558.3h8.1v8.1h-8.1z" class="c"/><path d="m213.4 558.3h8.1v8.1h-8.1z" class="c"/><path d="m222.3 576.1h8.1v8.1h-8.1z" class="e"/><path d="m231.2 576.1h8.1v8.1h-8.1z" class="c"/><path d="m222.3 567.2h8.1v8.1h-8.1z" class="c"/><path d="m231.2 567.2h8.1v8.1h-8.1z" class="e"/><path d="m222.3 558.3h8.1v8.1h-8.1z" class="c"/><path d="m231.2 558.3h8.1v8.1h-8.1z" class="c"/><path d="m258 611.8h8.1v8.1h-8.1z" class="c"/><path d="m284.7 620.7h8.1v8.1h-8.1z" class="e"/><path d="m240.1 585h8.1v8.1h-8.1z" class="e"/><path d="m258 585h8.1v8.1h-8.1z" class="e"/><path d="m275.8 593.9h8.1v8.1h-8.1z" class="c"/><path d="m275.8 585h8.1v8.1h-8.1z" class="e"/><path d="m293.6 593.9h8.1v8.1h-8.1z" class="e"/><path d="m311.4 593.9h8.1v8.1h-8.1z" class="e"/><path d="m293.6 585h8.1v8.1h-8.1z" class="e"/><path d="m302.5 585h8.1v8.1h-8.1z" class="c"/><path d="m240.1 576.1h8.1v8.1h-8.1z" class="e"/><path d="m249.1 576.1h8.1v8.1h-8.1z" class="e"/><path d="m258 576.1h8.1v8.1h-8.1z" class="e"/><path d="m240.1 567.2h8.1v8.1h-8.1z" class="e"/><path d="m249.1 567.2h8.1v8.1h-8.1z" class="c"/><path d="m258 567.2h8.1v8.1h-8.1z" class="c"/><path d="m240.1 558.3h8.1v8.1h-8.1z" class="c"/><path d="m249.1 558.3h8.1v8.1h-8.1z" class="c"/><path d="m258 558.3h8.1v8.1h-8.1z" class="c"/><path d="m266.9 576.1h8.1v8.1h-8.1z" class="c"/><path d="m275.8 576.1h8.1v8.1h-8.1z" class="e"/><path d="m284.7 576.1h8.1v8.1h-8.1z" class="c"/><path d="m266.9 567.2h8.1v8.1h-8.1z" class="e"/><path d="m275.8 567.2h8.1v8.1h-8.1z" class="c"/><path d="m284.7 567.2h8.1v8.1h-8.1z" class="c"/><path d="m266.9 558.3h8.1v8.1h-8.1z" class="c"/><path d="m275.8 558.3h8.1v8.1h-8.1z" class="c"/><path d="m284.7 558.3h8.1v8.1h-8.1z" class="c"/><path d="m293.6 576.1h8.1v8.1h-8.1z" class="e"/><path d="m302.5 576.1h8.1v8.1h-8.1z" class="c"/><path d="m311.4 576.1h8.1v8.1h-8.1z" class="e"/><path d="m293.6 567.2h8.1v8.1h-8.1z" class="c"/><path d="m302.5 567.2h8.1v8.1h-8.1z" class="e"/><path d="m311.4 567.2h8.1v8.1h-8.1z" class="c"/><path d="m293.6 558.3h8.1v8.1h-8.1z" class="c"/><path d="m302.5 558.3h8.1v8.1h-8.1z" class="c"/><path d="m311.4 558.3h8.1v8.1h-8.1z" class="c"/><path d="m329.2 602.9h8.1v8.1h-8.1z" class="e"/><path d="m320.3 585h8.1v8.1h-8.1z" class="e"/><path d="m338.1 585h8.1v8.1h-8.1z" class="e"/><path d="m347 594h8.1v8.1h-8.1z" class="e"/><path d="m347 585h8.1v8.1h-8.1z" class="e"/><path d="m320.3 576.1h8.1v8.1h-8.1z" class="e"/><path d="m329.2 576.1h8.1v8.1h-8.1z" class="e"/><path d="m338.1 576.1h8.1v8.1h-8.1z" class="e"/><path d="m320.3 567.2h8.1v8.1h-8.1z" class="e"/><path d="m329.2 567.2h8.1v8.1h-8.1z" class="c"/><path d="m338.1 567.2h8.1v8.1h-8.1z" class="c"/><path d="m320.3 558.3h8.1v8.1h-8.1z" class="c"/><path d="m329.2 558.3h8.1v8.1h-8.1z" class="c"/><path d="m338.1 558.3h8.1v8.1h-8.1z" class="c"/><path d="m347 576.1h8.1v8.1h-8.1z" class="c"/><path d="m347 567.2h8.1v8.1h-8.1z" class="e"/><path d="m347 558.3h8.1v8.1h-8.1z" class="c"/><path d="m364.9 620.7h8.1v8.1h-8.1z" class="e"/><path d="m391.6 629.6h8.1v8.1h-8.1z" class="e"/><path d="m356 602.9h8.1v8.1h-8.1z" class="e"/><path d="m356 594h8.1v8.1h-8.1z" class="c"/><path d="m356 585h8.1v8.1h-8.1z" class="e"/><path d="m382.7 602.9h8.1v8.1h-8.1z" class="e"/><path d="m373.8 594h8.1v8.1h-8.1z" class="e"/><path d="m391.6 594h8.1v8.1h-8.1z" class="e"/><path d="m373.8 585h8.1v8.1h-8.1z" class="e"/><path d="m382.7 585h8.1v8.1h-8.1z" class="c"/><path d="m356 576.1h8.1v8.1h-8.1z" class="e"/><path d="m364.9 576.1h8.1v8.1h-8.1z" class="c"/><path d="m356 567.2h8.1v8.1h-8.1z" class="c"/><path d="m364.9 567.2h8.1v8.1h-8.1z" class="c"/><path d="m356 558.3h8.1v8.1h-8.1z" class="c"/><path d="m364.9 558.3h8.1v8.1h-8.1z" class="c"/><path d="m382.7 576.1h8.1v8.1h-8.1z" class="c"/><path d="m391.6 576.1h8.1v8.1h-8.1z" class="e"/><path d="m373.8 567.2h8.1v8.1h-8.1z" class="c"/><path d="m382.7 567.2h8.1v8.1h-8.1z" class="e"/><path d="m391.6 567.2h8.1v8.1h-8.1z" class="c"/><path d="m373.8 558.3h8.1v8.1h-8.1z" class="c"/><path d="m382.7 558.3h8.1v8.1h-8.1z" class="c"/><path d="m391.6 558.3h8.1v8.1h-8.1z" class="c"/><path d="m418.3 611.8h8.1v8.1h-8.1z" class="c"/><path d="m445 620.7h8.1v8.1h-8.1z" class="e"/><path d="m409.4 602.9h8.1v8.1h-8.1z" class="e"/><path d="m400.5 585.1h8.1v8.1h-8.1z" class="e"/><path d="m418.3 585.1h8.1v8.1h-8.1z" class="e"/><path d="m427.2 594h8.1v8.1h-8.1z" class="e"/><path d="m436.1 594h8.1v8.1h-8.1z" class="c"/><path d="m427.2 585.1h8.1v8.1h-8.1z" class="e"/><path d="m462.8 602.9h8.1v8.1h-8.1z" class="e"/><path d="m453.9 594h8.1v8.1h-8.1z" class="e"/><path d="m453.9 585.1h8.1v8.1h-8.1z" class="e"/><path d="m462.8 585.1h8.1v8.1h-8.1z" class="c"/><path d="m400.5 576.1h8.1v8.1h-8.1z" class="e"/><path d="m409.4 576.1h8.1v8.1h-8.1z" class="e"/><path d="m400.5 567.2h8.1v8.1h-8.1z" class="e"/><path d="m409.4 567.2h8.1v8.1h-8.1z" class="c"/><path d="m418.3 567.2h8.1v8.1h-8.1z" class="c"/><path d="m400.5 558.3h8.1v8.1h-8.1z" class="c"/><path d="m409.4 558.3h8.1v8.1h-8.1z" class="c"/><path d="m418.3 558.3h8.1v8.1h-8.1z" class="c"/><path d="m427.2 576.1h8.1v8.1h-8.1z" class="c"/><path d="m436.1 576.1h8.1v8.1h-8.1z" class="e"/><path d="m445 576.1h8.1v8.1h-8.1z" class="c"/><path d="m427.2 567.2h8.1v8.1h-8.1z" class="e"/><path d="m436.1 567.2h8.1v8.1h-8.1z" class="c"/><path d="m445 567.2h8.1v8.1h-8.1z" class="c"/><path d="m427.2 558.3h8.1v8.1h-8.1z" class="c"/><path d="m436.1 558.3h8.1v8.1h-8.1z" class="c"/><path d="m445 558.3h8.1v8.1h-8.1z" class="c"/><path d="m453.9 576.1h8.1v8.1h-8.1z" class="e"/><path d="m462.8 576.1h8.1v8.1h-8.1z" class="c"/><path d="m453.9 567.2h8.1v8.1h-8.1z" class="c"/><path d="m462.8 567.2h8.1v8.1h-8.1z" class="e"/><path d="m453.9 558.3h8.1v8.1h-8.1z" class="c"/><path d="m462.8 558.3h8.1v8.1h-8.1z" class="c"/><path d="m471.8 585h8.1v8.1h-8.1z" class="e"/><path d="m498.5 602.8h8.1v8.1h-8.1z" class="e"/><path d="m489.6 593.9h8.1v8.1h-8.1z" class="e"/><path d="m507.4 593.9h8.1v8.1h-8.1z" class="e"/><path d="m489.6 585h8.1v8.1h-8.1z" class="e"/><path d="m498.5 585h8.1v8.1h-8.1z" class="c"/><path d="m480.7 576.1h8.1v8.1h-8.1z" class="c"/><path d="m471.8 567.1h8.1v8.1h-8.1z" class="c"/><path d="m480.7 567.1h8.1v8.1h-8.1z" class="c"/><path d="m471.8 558.2h8.1v8.1h-8.1z" class="c"/><path d="m480.7 558.2h8.1v8.1h-8.1z" class="c"/><path d="m498.5 576.1h8.1v8.1h-8.1z" class="c"/><path d="m507.4 576.1h8.1v8.1h-8.1z" class="e"/><path d="m489.6 567.1h8.1v8.1h-8.1z" class="c"/><path d="m498.5 567.1h8.1v8.1h-8.1z" class="e"/><path d="m507.4 567.1h8.1v8.1h-8.1z" class="c"/><path d="m489.6 558.2h8.1v8.1h-8.1z" class="c"/><path d="m498.5 558.2h8.1v8.1h-8.1z" class="c"/><path d="m507.4 558.2h8.1v8.1h-8.1z" class="c"/><path d="m534.1 611.8h8.1v8.1h-8.1z" class="c"/><path d="m560.9 620.7h8.1v8.1h-8.1z" class="e"/><path d="m525.2 602.8h8.1v8.1h-8.1z" class="e"/><path d="m516.3 585h8.1v8.1h-8.1z" class="e"/><path d="m534.1 585h8.1v8.1h-8.1z" class="e"/><path d="m543 593.9h8.1v8.1h-8.1z" class="e"/><path d="m551.9 593.9h8.1v8.1h-8.1z" class="c"/><path d="m543 585h8.1v8.1h-8.1z" class="e"/><path d="m578.7 602.8h8.1v8.1h-8.1z" class="e"/><path d="m569.8 593.9h8.1v8.1h-8.1z" class="e"/><path d="m569.8 585h8.1v8.1h-8.1z" class="e"/><path d="m578.7 585h8.1v8.1h-8.1z" class="c"/><path d="m516.3 576.1h8.1v8.1h-8.1z" class="e"/><path d="m525.2 576.1h8.1v8.1h-8.1z" class="e"/><path d="m516.3 567.2h8.1v8.1h-8.1z" class="e"/><path d="m525.2 567.2h8.1v8.1h-8.1z" class="c"/><path d="m534.1 567.2h8.1v8.1h-8.1z" class="c"/><path d="m516.3 558.3h8.1v8.1h-8.1z" class="c"/><path d="m525.2 558.3h8.1v8.1h-8.1z" class="c"/><path d="m534.1 558.3h8.1v8.1h-8.1z" class="c"/><path d="m543 576.1h8.1v8.1h-8.1z" class="c"/><path d="m551.9 576.1h8.1v8.1h-8.1z" class="e"/><path d="m560.9 576.1h8.1v8.1h-8.1z" class="c"/><path d="m543 567.2h8.1v8.1h-8.1z" class="e"/><path d="m551.9 567.2h8.1v8.1h-8.1z" class="c"/><path d="m560.9 567.2h8.1v8.1h-8.1z" class="c"/><path d="m543 558.3h8.1v8.1h-8.1z" class="c"/><path d="m551.9 558.3h8.1v8.1h-8.1z" class="c"/><path d="m560.9 558.3h8.1v8.1h-8.1z" class="c"/><path d="m569.8 576.1h8.1v8.1h-8.1z" class="e"/><path d="m578.7 576.1h8.1v8.1h-8.1z" class="c"/><path d="m569.8 567.2h8.1v8.1h-8.1z" class="c"/><path d="m578.7 567.2h8.1v8.1h-8.1z" class="e"/><path d="m569.8 558.3h8.1v8.1h-8.1z" class="c"/><path d="m578.7 558.3h8.1v8.1h-8.1z" class="c"/><path d="m26.3 527.6h8.1v8.1h-8.1z" class="d"/><path d="m53.1 536.5h8.1v8.1h-8.1z" class="e"/><path d="m17.4 518.7h8.1v8.1h-8.1z" class="e"/><path d="m8.5 500.9h8.1v8.1h-8.1z" class="e"/><path d="m26.3 500.9h8.1v8.1h-8.1z" class="e"/><path d="m44.1 509.8h8.1v8.1h-8.1z" class="d"/><path d="m44.1 500.9h8.1v8.1h-8.1z" class="e"/><path d="m62 509.8h8.1v8.1h-8.1z" class="e"/><path d="m79.8 509.8h8.1v8.1h-8.1z" class="e"/><path d="m62 500.9h8.1v8.1h-8.1z" class="e"/><path d="m70.9 500.9h8.1v8.1h-8.1z" class="d"/><path d="m8.5 491.9h8.1v8.1h-8.1z" class="e"/><path d="m17.4 491.9h8.1v8.1h-8.1z" class="e"/><path d="m26.3 491.9h8.1v8.1h-8.1z" class="e"/><path d="m8.5 483h8.1v8.1h-8.1z" class="e"/><path d="m17.4 483h8.1v8.1h-8.1z" class="d"/><path d="m26.3 483h8.1v8.1h-8.1z" class="d"/><path d="m8.5 474.1h8.1v8.1h-8.1z" class="d"/><path d="m17.4 474.1h8.1v8.1h-8.1z" class="d"/><path d="m26.3 474.1h8.1v8.1h-8.1z" class="d"/><path d="m35.2 491.9h8.1v8.1h-8.1z" class="d"/><path d="m44.1 491.9h8.1v8.1h-8.1z" class="e"/><path d="m53.1 491.9h8.1v8.1h-8.1z" class="d"/><path d="m35.2 483h8.1v8.1h-8.1z" class="e"/><path d="m44.1 483h8.1v8.1h-8.1z" class="d"/><path d="m53.1 483h8.1v8.1h-8.1z" class="d"/><path d="m35.2 474.1h8.1v8.1h-8.1z" class="d"/><path d="m44.1 474.1h8.1v8.1h-8.1z" class="d"/><path d="m53.1 474.1h8.1v8.1h-8.1z" class="d"/><path d="m62 491.9h8.1v8.1h-8.1z" class="e"/><path d="m70.9 491.9h8.1v8.1h-8.1z" class="d"/><path d="m79.8 491.9h8.1v8.1h-8.1z" class="e"/><path d="m62 483h8.1v8.1h-8.1z" class="d"/><path d="m70.9 483h8.1v8.1h-8.1z" class="e"/><path d="m79.8 483h8.1v8.1h-8.1z" class="d"/><path d="m62 474.1h8.1v8.1h-8.1z" class="d"/><path d="m70.9 474.1h8.1v8.1h-8.1z" class="d"/><path d="m79.8 474.1h8.1v8.1h-8.1z" class="d"/><path d="m133.2 536.5h8.1v8.1h-8.1z" class="e"/><path d="m97.6 518.7h8.1v8.1h-8.1z" class="e"/><path d="m88.7 500.9h8.1v8.1h-8.1z" class="e"/><path d="m106.5 500.9h8.1v8.1h-8.1z" class="e"/><path d="m124.3 518.7h8.1v8.1h-8.1z" class="e"/><path d="m115.4 509.8h8.1v8.1h-8.1z" class="e"/><path d="m124.3 509.8h8.1v8.1h-8.1z" class="d"/><path d="m115.4 500.9h8.1v8.1h-8.1z" class="e"/><path d="m124.3 500.9h8.1v8.1h-8.1z" class="e"/><path d="m151 518.7h8.1v8.1h-8.1z" class="e"/><path d="m142.1 509.8h8.1v8.1h-8.1z" class="e"/><path d="m160 509.8h8.1v8.1h-8.1z" class="e"/><path d="m142.1 500.9h8.1v8.1h-8.1z" class="e"/><path d="m151 500.9h8.1v8.1h-8.1z" class="d"/><path d="m88.7 491.9h8.1v8.1h-8.1z" class="e"/><path d="m97.6 491.9h8.1v8.1h-8.1z" class="e"/><path d="m106.5 491.9h8.1v8.1h-8.1z" class="e"/><path d="m88.7 483h8.1v8.1h-8.1z" class="e"/><path d="m97.6 483h8.1v8.1h-8.1z" class="d"/><path d="m106.5 483h8.1v8.1h-8.1z" class="d"/><path d="m88.7 474.1h8.1v8.1h-8.1z" class="d"/><path d="m97.6 474.1h8.1v8.1h-8.1z" class="d"/><path d="m106.5 474.1h8.1v8.1h-8.1z" class="d"/><path d="m115.4 491.9h8.1v8.1h-8.1z" class="d"/><path d="m124.3 491.9h8.1v8.1h-8.1z" class="e"/><path d="m133.2 491.9h8.1v8.1h-8.1z" class="d"/><path d="m115.4 483h8.1v8.1h-8.1z" class="e"/><path d="m124.3 483h8.1v8.1h-8.1z" class="d"/><path d="m133.2 483h8.1v8.1h-8.1z" class="d"/><path d="m115.4 474.1h8.1v8.1h-8.1z" class="d"/><path d="m124.3 474.1h8.1v8.1h-8.1z" class="d"/><path d="m133.2 474.1h8.1v8.1h-8.1z" class="d"/><path d="m151 491.9h8.1v8.1h-8.1z" class="d"/><path d="m160 491.9h8.1v8.1h-8.1z" class="e"/><path d="m142.1 483h8.1v8.1h-8.1z" class="d"/><path d="m151 483h8.1v8.1h-8.1z" class="e"/><path d="m160 483h8.1v8.1h-8.1z" class="d"/><path d="m142.1 474.1h8.1v8.1h-8.1z" class="d"/><path d="m151 474.1h8.1v8.1h-8.1z" class="d"/><path d="m160 474.1h8.1v8.1h-8.1z" class="d"/><path d="m186.7 527.6h8.1v8.1h-8.1z" class="d"/><path d="m213.4 536.5h8.1v8.1h-8.1z" class="e"/><path d="m177.7 518.7h8.1v8.1h-8.1z" class="e"/><path d="m168.8 500.9h8.1v8.1h-8.1z" class="e"/><path d="m186.7 500.9h8.1v8.1h-8.1z" class="e"/><path d="m195.6 509.8h8.1v8.1h-8.1z" class="e"/><path d="m204.5 509.8h8.1v8.1h-8.1z" class="d"/><path d="m195.6 500.9h8.1v8.1h-8.1z" class="e"/><path d="m231.2 518.7h8.1v8.1h-8.1z" class="e"/><path d="m222.3 509.8h8.1v8.1h-8.1z" class="e"/><path d="m222.3 500.9h8.1v8.1h-8.1z" class="e"/><path d="m231.2 500.9h8.1v8.1h-8.1z" class="d"/><path d="m168.8 492h8.1v8.1h-8.1z" class="e"/><path d="m177.7 492h8.1v8.1h-8.1z" class="e"/><path d="m168.8 483.1h8.1v8.1h-8.1z" class="e"/><path d="m177.7 483.1h8.1v8.1h-8.1z" class="d"/><path d="m186.7 483.1h8.1v8.1h-8.1z" class="d"/><path d="m168.8 474.1h8.1v8.1h-8.1z" class="d"/><path d="m177.7 474.1h8.1v8.1h-8.1z" class="d"/><path d="m186.7 474.1h8.1v8.1h-8.1z" class="d"/><path d="m195.6 492h8.1v8.1h-8.1z" class="d"/><path d="m204.5 492h8.1v8.1h-8.1z" class="e"/><path d="m213.4 492h8.1v8.1h-8.1z" class="d"/><path d="m195.6 483.1h8.1v8.1h-8.1z" class="e"/><path d="m204.5 483.1h8.1v8.1h-8.1z" class="d"/><path d="m213.4 483.1h8.1v8.1h-8.1z" class="d"/><path d="m195.6 474.1h8.1v8.1h-8.1z" class="d"/><path d="m204.5 474.1h8.1v8.1h-8.1z" class="d"/><path d="m213.4 474.1h8.1v8.1h-8.1z" class="d"/><path d="m222.3 492h8.1v8.1h-8.1z" class="e"/><path d="m231.2 492h8.1v8.1h-8.1z" class="d"/><path d="m222.3 483.1h8.1v8.1h-8.1z" class="d"/><path d="m231.2 483.1h8.1v8.1h-8.1z" class="e"/><path d="m222.3 474.1h8.1v8.1h-8.1z" class="d"/><path d="m231.2 474.1h8.1v8.1h-8.1z" class="d"/><path d="m258 527.6h8.1v8.1h-8.1z" class="d"/><path d="m284.7 536.5h8.1v8.1h-8.1z" class="e"/><path d="m240.1 500.9h8.1v8.1h-8.1z" class="e"/><path d="m258 500.9h8.1v8.1h-8.1z" class="e"/><path d="m275.8 509.8h8.1v8.1h-8.1z" class="d"/><path d="m275.8 500.9h8.1v8.1h-8.1z" class="e"/><path d="m293.6 509.8h8.1v8.1h-8.1z" class="e"/><path d="m311.4 509.8h8.1v8.1h-8.1z" class="e"/><path d="m293.6 500.9h8.1v8.1h-8.1z" class="e"/><path d="m302.5 500.9h8.1v8.1h-8.1z" class="d"/><path d="m240.1 491.9h8.1v8.1h-8.1z" class="e"/><path d="m249.1 491.9h8.1v8.1h-8.1z" class="e"/><path d="m258 491.9h8.1v8.1h-8.1z" class="e"/><path d="m240.1 483h8.1v8.1h-8.1z" class="e"/><path d="m249.1 483h8.1v8.1h-8.1z" class="d"/><path d="m258 483h8.1v8.1h-8.1z" class="d"/><path d="m240.1 474.1h8.1v8.1h-8.1z" class="d"/><path d="m249.1 474.1h8.1v8.1h-8.1z" class="d"/><path d="m258 474.1h8.1v8.1h-8.1z" class="d"/><path d="m266.9 491.9h8.1v8.1h-8.1z" class="d"/><path d="m275.8 491.9h8.1v8.1h-8.1z" class="e"/><path d="m284.7 491.9h8.1v8.1h-8.1z" class="d"/><path d="m266.9 483h8.1v8.1h-8.1z" class="e"/><path d="m275.8 483h8.1v8.1h-8.1z" class="d"/><path d="m284.7 483h8.1v8.1h-8.1z" class="d"/><path d="m266.9 474.1h8.1v8.1h-8.1z" class="d"/><path d="m275.8 474.1h8.1v8.1h-8.1z" class="d"/><path d="m284.7 474.1h8.1v8.1h-8.1z" class="d"/><path d="m293.6 491.9h8.1v8.1h-8.1z" class="e"/><path d="m302.5 491.9h8.1v8.1h-8.1z" class="d"/><path d="m311.4 491.9h8.1v8.1h-8.1z" class="e"/><path d="m293.6 483h8.1v8.1h-8.1z" class="d"/><path d="m302.5 483h8.1v8.1h-8.1z" class="e"/><path d="m311.4 483h8.1v8.1h-8.1z" class="d"/><path d="m293.6 474.1h8.1v8.1h-8.1z" class="d"/><path d="m302.5 474.1h8.1v8.1h-8.1z" class="d"/><path d="m311.4 474.1h8.1v8.1h-8.1z" class="d"/><path d="m329.2 518.7h8.1v8.1h-8.1z" class="e"/><path d="m320.3 500.9h8.1v8.1h-8.1z" class="e"/><path d="m338.1 500.9h8.1v8.1h-8.1z" class="e"/><path d="m347 509.8h8.1v8.1h-8.1z" class="e"/><path d="m347 500.9h8.1v8.1h-8.1z" class="e"/><path d="m320.3 492h8.1v8.1h-8.1z" class="e"/><path d="m329.2 492h8.1v8.1h-8.1z" class="e"/><path d="m338.1 492h8.1v8.1h-8.1z" class="e"/><path d="m320.3 483.1h8.1v8.1h-8.1z" class="e"/><path d="m329.2 483.1h8.1v8.1h-8.1z" class="d"/><path d="m338.1 483.1h8.1v8.1h-8.1z" class="d"/><path d="m320.3 474.1h8.1v8.1h-8.1z" class="d"/><path d="m329.2 474.1h8.1v8.1h-8.1z" class="d"/><path d="m338.1 474.1h8.1v8.1h-8.1z" class="d"/><path d="m347 492h8.1v8.1h-8.1z" class="d"/><path d="m347 483.1h8.1v8.1h-8.1z" class="e"/><path d="m347 474.1h8.1v8.1h-8.1z" class="d"/><path d="m364.9 536.5h8.1v8.1h-8.1z" class="e"/><path d="m391.6 545.5h8.1v8.1h-8.1z" class="e"/><path d="m356 518.7h8.1v8.1h-8.1z" class="e"/><path d="m356 509.8h8.1v8.1h-8.1z" class="d"/><path d="m356 500.9h8.1v8.1h-8.1z" class="e"/><path d="m382.7 518.7h8.1v8.1h-8.1z" class="e"/><path d="m373.8 509.8h8.1v8.1h-8.1z" class="e"/><path d="m391.6 509.8h8.1v8.1h-8.1z" class="e"/><path d="m373.8 500.9h8.1v8.1h-8.1z" class="e"/><path d="m382.7 500.9h8.1v8.1h-8.1z" class="d"/><path d="m356 492h8.1v8.1h-8.1z" class="e"/><path d="m364.9 492h8.1v8.1h-8.1z" class="d"/><path d="m356 483.1h8.1v8.1h-8.1z" class="d"/><path d="m364.9 483.1h8.1v8.1h-8.1z" class="d"/><path d="m356 474.1h8.1v8.1h-8.1z" class="d"/><path d="m364.9 474.1h8.1v8.1h-8.1z" class="d"/><path d="m382.7 492h8.1v8.1h-8.1z" class="d"/><path d="m391.6 492h8.1v8.1h-8.1z" class="e"/><path d="m373.8 483.1h8.1v8.1h-8.1z" class="d"/><path d="m382.7 483.1h8.1v8.1h-8.1z" class="e"/><path d="m391.6 483.1h8.1v8.1h-8.1z" class="d"/><path d="m373.8 474.1h8.1v8.1h-8.1z" class="d"/><path d="m382.7 474.1h8.1v8.1h-8.1z" class="d"/><path d="m391.6 474.1h8.1v8.1h-8.1z" class="d"/><path d="m418.3 527.7h8.1v8.1h-8.1z" class="d"/><path d="m445 536.6h8.1v8.1h-8.1z" class="e"/><path d="m409.4 518.7h8.1v8.1h-8.1z" class="e"/><path d="m400.5 500.9h8.1v8.1h-8.1z" class="e"/><path d="m418.3 500.9h8.1v8.1h-8.1z" class="e"/><path d="m427.2 509.8h8.1v8.1h-8.1z" class="e"/><path d="m436.1 509.8h8.1v8.1h-8.1z" class="d"/><path d="m427.2 500.9h8.1v8.1h-8.1z" class="e"/><path d="m462.8 518.7h8.1v8.1h-8.1z" class="e"/><path d="m453.9 509.8h8.1v8.1h-8.1z" class="e"/><path d="m453.9 500.9h8.1v8.1h-8.1z" class="e"/><path d="m462.8 500.9h8.1v8.1h-8.1z" class="d"/><path d="m400.5 492h8.1v8.1h-8.1z" class="e"/><path d="m409.4 492h8.1v8.1h-8.1z" class="e"/><path d="m400.5 483.1h8.1v8.1h-8.1z" class="e"/><path d="m409.4 483.1h8.1v8.1h-8.1z" class="d"/><path d="m418.3 483.1h8.1v8.1h-8.1z" class="d"/><path d="m400.5 474.2h8.1v8.1h-8.1z" class="d"/><path d="m409.4 474.2h8.1v8.1h-8.1z" class="d"/><path d="m418.3 474.2h8.1v8.1h-8.1z" class="d"/><path d="m427.2 492h8.1v8.1h-8.1z" class="d"/><path d="m436.1 492h8.1v8.1h-8.1z" class="e"/><path d="m445 492h8.1v8.1h-8.1z" class="d"/><path d="m427.2 483.1h8.1v8.1h-8.1z" class="e"/><path d="m436.1 483.1h8.1v8.1h-8.1z" class="d"/><path d="m445 483.1h8.1v8.1h-8.1z" class="d"/><path d="m427.2 474.2h8.1v8.1h-8.1z" class="d"/><path d="m436.1 474.2h8.1v8.1h-8.1z" class="d"/><path d="m445 474.2h8.1v8.1h-8.1z" class="d"/><path d="m453.9 492h8.1v8.1h-8.1z" class="e"/><path d="m462.8 492h8.1v8.1h-8.1z" class="d"/><path d="m453.9 483.1h8.1v8.1h-8.1z" class="d"/><path d="m462.8 483.1h8.1v8.1h-8.1z" class="e"/><path d="m453.9 474.2h8.1v8.1h-8.1z" class="d"/><path d="m462.8 474.2h8.1v8.1h-8.1z" class="d"/><path d="m471.8 500.9h8.1v8.1h-8.1z" class="e"/><path d="m498.5 518.7h8.1v8.1h-8.1z" class="e"/><path d="m489.6 509.8h8.1v8.1h-8.1z" class="e"/><path d="m507.4 509.8h8.1v8.1h-8.1z" class="e"/><path d="m489.6 500.9h8.1v8.1h-8.1z" class="e"/><path d="m498.5 500.9h8.1v8.1h-8.1z" class="d"/><path d="m480.7 491.9h8.1v8.1h-8.1z" class="d"/><path d="m471.8 483h8.1v8.1h-8.1z" class="d"/><path d="m480.7 483h8.1v8.1h-8.1z" class="d"/><path d="m471.8 474.1h8.1v8.1h-8.1z" class="d"/><path d="m480.7 474.1h8.1v8.1h-8.1z" class="d"/><path d="m498.5 491.9h8.1v8.1h-8.1z" class="d"/><path d="m507.4 491.9h8.1v8.1h-8.1z" class="e"/><path d="m489.6 483h8.1v8.1h-8.1z" class="d"/><path d="m498.5 483h8.1v8.1h-8.1z" class="e"/><path d="m507.4 483h8.1v8.1h-8.1z" class="d"/><path d="m489.6 474.1h8.1v8.1h-8.1z" class="d"/><path d="m498.5 474.1h8.1v8.1h-8.1z" class="d"/><path d="m507.4 474.1h8.1v8.1h-8.1z" class="d"/><path d="m534.1 527.6h8.1v8.1h-8.1z" class="d"/><path d="m560.9 536.5h8.1v8.1h-8.1z" class="e"/><path d="m525.2 518.7h8.1v8.1h-8.1z" class="e"/><path d="m516.3 500.9h8.1v8.1h-8.1z" class="e"/><path d="m534.1 500.9h8.1v8.1h-8.1z" class="e"/><path d="m543 509.8h8.1v8.1h-8.1z" class="e"/><path d="m551.9 509.8h8.1v8.1h-8.1z" class="d"/><path d="m543 500.9h8.1v8.1h-8.1z" class="e"/><path d="m578.7 518.7h8.1v8.1h-8.1z" class="e"/><path d="m569.8 509.8h8.1v8.1h-8.1z" class="e"/><path d="m569.8 500.9h8.1v8.1h-8.1z" class="e"/><path d="m578.7 500.9h8.1v8.1h-8.1z" class="d"/><path d="m516.3 491.9h8.1v8.1h-8.1z" class="e"/><path d="m525.2 491.9h8.1v8.1h-8.1z" class="e"/><path d="m516.3 483h8.1v8.1h-8.1z" class="e"/><path d="m525.2 483h8.1v8.1h-8.1z" class="d"/><path d="m534.1 483h8.1v8.1h-8.1z" class="d"/><path d="m516.3 474.1h8.1v8.1h-8.1z" class="d"/><path d="m525.2 474.1h8.1v8.1h-8.1z" class="d"/><path d="m534.1 474.1h8.1v8.1h-8.1z" class="d"/><path d="m543 491.9h8.1v8.1h-8.1z" class="d"/><path d="m551.9 491.9h8.1v8.1h-8.1z" class="e"/><path d="m560.9 491.9h8.1v8.1h-8.1z" class="d"/><path d="m543 483h8.1v8.1h-8.1z" class="e"/><path d="m551.9 483h8.1v8.1h-8.1z" class="d"/><path d="m560.9 483h8.1v8.1h-8.1z" class="d"/><path d="m543 474.1h8.1v8.1h-8.1z" class="d"/><path d="m551.9 474.1h8.1v8.1h-8.1z" class="d"/><path d="m560.9 474.1h8.1v8.1h-8.1z" class="d"/><path d="m569.8 491.9h8.1v8.1h-8.1z" class="e"/><path d="m578.7 491.9h8.1v8.1h-8.1z" class="d"/><path d="m569.8 483h8.1v8.1h-8.1z" class="d"/><path d="m578.7 483h8.1v8.1h-8.1z" class="e"/><path d="m569.8 474.1h8.1v8.1h-8.1z" class="d"/><path d="m578.7 474.1h8.1v8.1h-8.1z" class="d"/></g></svg>